<?xml version="1.0" encoding="UTF-8"?>
<svg id="Layer_1" data-name="Layer 1" xmlns="http://www.w3.org/2000/svg" viewBox="0 0 2077.24 2077.66">
  <defs>
    <style>
      .cls-1 {
        fill: #edd9b7;
      }

      .cls-2 {
        fill: #0d0c08;
      }

      .cls-3 {
        fill: #fff;
      }

      .cls-4 {
        fill: #040201;
      }

      .cls-5 {
        fill: #ff6700;
      }

      .cls-6 {
        fill: #060808;
      }

      .cls-7 {
        fill: #010100;
      }

      .cls-8 {
        fill: #16130b;
      }

      .cls-9 {
        fill: #bcab69;
      }

      .cls-10 {
        fill: #005dfe;
      }

      .cls-11 {
        fill: #131a1d;
      }

      .cls-12 {
        fill: #c883a4;
      }

      .cls-13 {
        fill: #070808;
      }

      .cls-14 {
        fill: #767778;
      }

      .cls-15 {
        fill: #f6ebd8;
      }

      .cls-16 {
        fill: #0c0b07;
      }

      .cls-17 {
        fill: #892654;
      }

      .cls-18, .cls-19 {
        fill: #005dff;
      }

      .cls-20 {
        fill: #dcb983;
      }

      .cls-21 {
        fill: #080908;
      }

      .cls-22 {
        fill: #895401;
      }

      .cls-19 {
        stroke: #000;
        stroke-miterlimit: 10;
        stroke-width: 4px;
      }

      .cls-23 {
        fill: #fd9fcb;
      }

      .cls-24 {
        fill: #070708;
      }

      .cls-25 {
        fill: #8b732b;
      }

      .cls-26 {
        fill: #4c3407;
      }

      .cls-27 {
        fill: #050708;
      }

      .cls-28 {
        fill: #ffa200;
      }

      .cls-29 {
        fill: #fefefe;
      }
    </style>
  </defs>
  <g>
    <path class="cls-28" d="M81.37,1441.6c-34.13-80.77-57.33-164.62-70.21-251.32-9.87-66.45-13.36-133.34-9.81-200.37,12.56-237.28,94.88-447.44,249.84-627.72C401.31,187.53,589.93,75.42,814.57,24.35c47.78-10.86,96.24-17.52,145.15-21.24,47.95-3.64,95.89-4.19,143.83-1.13,118.35,7.55,232.31,34.04,341.46,80.61,135.24,57.71,253.23,140.27,353.3,247.94,128.51,138.27,213.57,299.65,254.62,484.04,11.82,53.08,19.11,106.79,22.33,161.09,2.85,48,2.73,95.97-1.05,143.84-9.68,122.66-39.84,240.1-91.23,352-.28,.6-.45,1.25-.68,1.88-3.6,1.37-6.5-.56-9.31-2.22-18.63-11.07-38.4-19.65-58.56-27.47-11.92-4.62-22.71-11-30.81-21.24-19.72-31.61-38.69-63.7-58.77-95.1-10.45-20.03-19.79-40.62-31.2-60.15-14.3-24.47-18.24-51.75-21.4-79.23-.38-3.31-.87-6.58-1.54-9.84-3.7-31.79-13.03-61.8-29.96-89.02-17.18-27.64-33.88-55.56-50.05-83.8-10.39-29.75-30.3-55.33-36.83-86.9-7.35-35.55-11.1-70.8-2.34-106.69,3.94-16.12,6.99-32.5,9.26-49,3.98-29.02-4.82-40.94-33.76-44.73-22.9-1.68-39.31,11.3-51.57,27.37-25.3,33.16-42.44,70.71-51.19,111.77-1.32,6.19-2.65,12.38-4.16,18.53-6.52,26.45-5.67,52.21,2.12,78.75,13.33,45.39,25.32,91.15,41.79,135.57,.81,2.19,1.58,4.4,2.03,6.69,1.67,8.51-.68,10.93-9.51,9.75-4.96-.66-9.79-1.98-14.61-3.31-37.35-10.35-74.28-11.48-112.21-.55-34.49,9.94-69.62,18.03-104.99,24.73-8.49-1.8-4.92-7.44-3.18-11.61,8.08-19.35,16.14-38.71,24.32-58.03,26.47-62.53,55.4-123.97,82.39-186.27,2.82-6.5,6.98-10.16,14.16-10.63,17.22-1.14,28.96-9.37,38.43-24.43,19.12-30.43,40.31-59.58,53.17-93.53,6.13-16.2,12.75-32.27,8.03-50.34-2.06-7.88-5.03-15.18-9.81-21.67-6.19-8.41-8.1-17.69-8.4-28.08-.68-24,2.13-47.84,2.26-71.79,.1-17.45-2.78-34.36-6.96-51.26-8.74-35.26-6.83-70.61,.78-105.82,2.04-9.43,5.21-18.6,6.29-28.25,2.93-19.72,5.53-39.37-10.06-55.74-7.66-8.95-16.6-16.18-27.16-21.63-13.32-6.88-25.27-16.08-38.34-23.44-6.47-3.64-10.85-9.66-14.23-16.37-5.85-11.62-10.41-23.79-15.72-35.64-19.48-43.51-51.97-73.31-95.85-91.14-18.08-6.86-36.91-10.63-55.95-13.41-7.98-1.16-15.34-3.43-22.45-7.4-16.23-9.05-34.36-13.9-50.89-22.38-4.69-2.41-9.66-4.36-14.43-6.67-14.72-7.78-30.29-11.84-47.05-11.54-6.8,.12-13.17,1.15-19.31,4.17-12.19,5.99-25.06,8.95-38.71,7.91-38.82-2.96-72.8,10.88-103.86,32.03-16.73,11.39-35.03,15.61-54.01,19.23-7.72,1.63-15.46,3.22-23.16,5.02-19.09,4.47-34.1,15.14-46.49,29.93-15.65,21.12-38.03,34.78-57.52,51.63-5.64,4.88-12.97,6.51-19.86,8.86-7.15,2.02-13.57,5.51-19.65,9.7-1.58,1.05-3.14,2.1-4.55,3.39-11.33,9.77-19.6,21.7-25.49,35.39-2.78,6.47-6.73,12.25-11.51,17.45-10.72,11.67-17.98,24.3-16.15,41.3,.97,8.97-6.16,15.41-13.05,20.07-9.44,6.38-18,13.75-26.6,21.09-12.46,10.62-17.67,23.86-13.3,40.21,1.38,5.15,2.91,10.26,4.4,15.38,2.53,8.68,2.25,16.83-1.8,25.21-5.13,10.61-5.74,22.51-7.92,33.92-.91,4.73,.87,9.21,3.38,13.3,4.32,7.05,4.71,14.34,1.65,22.02-1.72,4.32-3.1,8.8-4.38,13.29-4.8,16.84,.93,31.18,16.35,39.73,6.99,3.88,13.88,7.94,21,11.62,3.64,2.46,7.84,4.62,5.67,10.28-1.42,2-3.49,3.03-5.72,3.8-17.18,5.88-26.06,17.98-29.12,35.82-6.1,35.54-10.99,71.19-8.66,107.29,1.54,23.85,9.51,45.6,27.99,62.05,7.44,6.62,14.8,13.48,23.56,18.46,5.43,3.08,8.31,7.51,8.15,13.81-.68,27.7,2.37,55.14,6.28,82.47,3.38,23.63,5.21,47.36,15.23,69.92,9.82,22.11,14.02,46.44,23.01,69.05-.19,1.82-1.12,3.11-2.77,3.89-5.08,1.56-9.77-.7-14.61-1.49-28.94-7.64-58.44-13.01-87.21-21.35-31.39-9.1-62.59-5.46-93.66,1.85-5.82,1.37-11.54,3.25-17.39,4.54-12.15,2.68-15.14-.39-11.62-12.03,2.31-7.65,4.91-15.21,7.59-22.73,15.55-43.64,26.91-88.5,38.99-133.16,3.55-13.11,4.13-26.3,2.2-39.59-7.05-48.6-21.38-94.65-47.55-136.7-9.34-15-20.66-27.42-35.87-36.69-11.23-6.85-22.66-9.03-35.26-6.05-21.29,5.17-29.63,17.46-26.65,39.51,3.3,24.42,9.57,48.33,12.99,72.71,6.04,42.94-.48,84.51-18.6,123.6-14.79,31.89-30.55,63.41-47.8,94.1-19.42,26.3-35.79,54.27-46.64,85.27-3.52,10.06-5.39,20.53-7.25,30.99-3.58,16.62-4.86,33.57-7.53,50.32-3.29,20.61-9.93,40.01-20.81,57.87-14.73,24.18-24.83,50.85-40.34,74.64-12.9,19.78-26.02,39.43-36.86,60.51-8.89,17.28-23.23,28.87-41.45,35.63-26.96,10-52.78,22.16-75.8,39.66-1.35,1.02-2.91,1.6-4.67,1.27Z"/>
    <path class="cls-5" d="M1710.87,1830.2c-25.34,22.7-52.56,43-80.47,62.35-117.26,81.33-245.94,136.05-385.72,164.52-33.54,6.83-67.43,11.52-101.52,15.07-45.79,4.77-91.7,6.6-137.6,4.89-203.71-7.61-390-68.51-558.1-184.23-37.38-25.73-72.67-54.09-106.4-84.43-2.21-1.99-4.2-4.23-6.3-6.35,1.08-5.95,6.24-7.49,10.7-9.39,17.19-7.34,33.88-15.65,49.81-25.41,12.3-7.54,26.01-9.82,39.87-12.04,37.15-5.97,74.31-11.99,111.62-16.76,37.4-4.77,71.4-18.6,103.85-36.8,43.86-24.59,88.29-48.18,131.61-73.76,19.18-11.32,36.02-25.13,48.01-44.25,7.71-12.29,11.29-25.72,9.59-40.05-2.08-17.57-5.15-35.01-15.04-50.3-2.86-4.42-3.03-8.2,.41-12.69,24.63-32.11,26.97-69.04,6.87-104.16-1.49-2.6-3.26-5.04-4.23-7.92-1.34-3.97-.54-7.29,3.23-9.44,22.54-12.91,26.8-35.1,28.9-58.03,.84-9.22-.16-18.56-1.09-27.88-1.46-14.69-7.58-26.56-17.25-37.32-11.16-12.43-10.97-13.42-1.23-27.3,3.63-5.18,7.57-10.16,10.89-15.55,2.78-4.5,6.59-5.98,10.85-2.64,17.42,13.67,39.21,19.87,56.69,33.39,11.3,8.48,23.35,15.67,36.49,20.99,16.81,7.02,34.51,9.87,52.49,11.67,26.17,2.62,52.42,4.13,78.63,6.14,7.63,.58,15.33,.5,22.91-1.03,35.85-3.75,70.6-11.3,102.23-29.64,3.69-2.14,7.52-4.7,11.85-1.14,5.92,9.63,11.8,19.29,18.23,28.61,3.81,5.52,3.51,10.87-1.45,15.23-14.64,12.86-21.52,29.14-22.63,48.33-1.24,21.57,.14,42.58,10.71,62.14,3.59,6.64,8.11,11.97,14.68,15.85,8.71,5.15,9.23,6.97,4.19,15.94-7.77,13.81-14.06,28.15-14.5,44.18-.61,22.27,1.36,44.1,17.77,61.46,4.92,5.2,5.15,9.43,1.49,15.79-10.71,18.61-15.56,39.13-14.04,60.43,1.94,27.14,18.83,45.82,39.65,60.68,26.87,19.17,56.35,34.16,85.19,50.11,32.62,18.04,65.01,36.5,98.51,52.91,28.67,14.04,59.8,18.11,90.76,22.41,34.96,4.85,69.73,10.86,104.6,16.25,20.22,3.12,35.25,16.66,52.49,25.74,1.19,.63,1.61,2.06,1.77,3.43Z"/>
    <path class="cls-27" d="M918.57,1226.11c-13.35-8.12-26.73-16.15-41.13-22.42-7.62-3.32-13.48-9.59-21.16-14.74-5.62,11.07-13.39,20.11-19.71,30.14-1.94,3.08-2.93,5.48,.73,8.48,20.37,16.67,25.46,39.2,25.55,64.33,.06,17.78-3.01,34.32-10.96,50.14-4.34,8.63-9.76,15.96-19.41,18.95-3.85,1.19-4.79,3.07-2.73,6.56,2.03,3.44,3.88,6.99,5.9,10.43,15.22,25.97,14.85,53.29,6.78,81.14-3.15,10.85-10.06,19.4-19.25,26.89,11.64,15.88,16.23,34.02,18.67,52.92,2.26,17.5-.68,33.72-10.7,48.57-9.08,13.45-20.17,24.74-33.73,33.64-29.27,19.22-60.36,35.28-90.84,52.41-17.42,9.79-34.94,19.4-52.29,29.29-38.35,21.85-79.15,36.06-123.22,40.74-36.42,3.87-72.39,10.93-108.61,16.23-8.93,1.31-17.59,4.17-25.14,9.26-15.01,10.11-31.48,17.27-47.89,24.62-5.13,2.3-10.5,4.28-14.66,8.34-8.21,2.85-15.48,7.57-23.03,11.69-30.67,16.73-62.36,31.35-94.12,45.82-10.33,4.71-20.12,10.25-29.42,16.76-4.89,3.42-10.05,6.5-15.29,9.38-6.96,3.82-14.31,4.42-22.22,3.04-20.49-3.57-37.13-13.34-51.27-28.56-18.53-19.94-32.78-42.71-46.01-66.23-2.1-3.73-3.7-7.85-4.87-11.98-6.95-24.61-14.58-49.06-18.46-74.45-1.51-9.9-2.87-19.87-2.7-29.79,.51-29.28-1.52-58.63,1.28-87.84,2.22-23.12,4.97-46.21,11.94-68.53,4.24,2.21,9.31,2.32,13.29,5.22,.57,1.42,.69,2.88,.54,4.39-11.87,48.4-13.29,97.75-10.53,147.01,2.36,42.08,11.93,83.01,31.47,120.92,10.3,19.99,24.45,37.28,39.42,53.9,5.65,6.27,12.87,10.51,20.47,14.07,14.89,6.98,28.6,7.76,42.95-3.09,24.91-18.84,54.59-29.07,82.49-42.42,21.04-10.07,41.51-21.15,62-32.22,5.28-2.85,10.55-5.67,16.09-8.02,16.87-7.16,33.52-14.7,48.78-25.1,14.18-9.67,30.8-12.05,47.28-14.8,40.75-6.79,81.76-11.82,122.48-18.72,23.84-4.04,45.94-12.39,67.58-23.49,50.11-25.71,98.88-53.77,147.79-81.61,15.03-8.55,29.36-18.3,40.1-32.5,10.62-14.04,15.44-29.18,11.99-46.79-2.25-11.46-4.18-22.89-9.46-33.52-3.53-7.11-8.68-10.41-16.61-10.32-9.3,.11-18.67,.68-27.86-1.65-2.91-.74-5.92-1.16-8.54-2.69-4.21-2.45-8.09-5.5-6.53-11.03,1.44-5.08,6.14-6.05,10.56-5.56,9.94,1.1,19.86,1.96,29.88,1.65,18.47-.58,26.54-6.92,31.53-24.59,7.87-27.87,2.16-53.31-13.41-77.08-3.74-5.71-8.83-8.8-15.77-8.97-20.25-.47-38.3-7.98-55.53-17.85-4.74-2.72-9.52-6.13-6.33-12.66,2.99-6.12,8.4-5.63,13.83-3.73,5.05,1.76,9.69,4.43,14.5,6.72,18.32,8.68,37.89,9.65,57.64,8.94,7.09-.25,11.04-5.27,14.41-10.98,10.63-18.01,9.53-37.7,8.5-57.4-1-19.08-10.38-32.6-27.32-41.09-15.77-7.9-31.31-15.27-49.68-16.73-24.1-1.92-46.22-12.28-68.52-21.11-4.71-1.86-8.19-5.15-6.74-10.72,1.61-6.15,6.77-6.67,12.03-6.23,5.06,.42,9.64,2.55,14.26,4.44,19.51,7.97,39.3,14.48,60.68,15.51,10.41,.5,19.87,5.56,29.21,9.87,7.83,3.62,12.69,1.37,16.21-5.83,3.67-7.51,8.36-14.36,13.05-21.27,11.97-17.63,6.4-43.84-10.9-56.15-8.36-5.95-18.56-9.1-25.54-17.03,1.51-4.98,5.34-2.91,8.21-2.32,9.88,2.02,19.27,5.28,26.75,12.5q-5.55-5.18-5.96-10.32c14.3,2.66,30.11,20.34,31.71,35.5,.35,3.31,.7,6.71,.17,9.94-2.21,13.38,4.05,21.83,14.9,28.62,9.07,5.67,19.1,9.31,28.2,14.77,6.97,4.18,15.31,6.76,19.16,14.99-1.07,4.55-3.1,8.53-6.91,11.42Z"/>
    <path class="cls-27" d="M1710.87,1830.2c-11.79-6.8-23.43-13.89-35.41-20.32-13.51-7.26-28.76-7.84-43.5-10.16-38.44-6.04-76.92-11.82-115.35-17.91-25.19-3.99-48.52-12.87-71.26-24.66-47.87-24.81-94.61-51.63-141.64-77.94-8.7-4.87-17.02-10.45-25.39-15.88-9.57-6.21-17.68-14.06-25.01-22.79-15.25-18.15-21.21-38.53-17.11-62.22,2.99-17.23,7.25-33.7,17.56-48.03-.26-1.94-1.72-2.9-2.96-3.96-9.81-8.34-15.16-19.23-17.94-31.53-6.19-27.38-4.07-53.56,11.4-77.78,.89-1.4,1.67-2.88,2.44-4.35,3.14-5.95,3.26-6.28-2.69-8.56-7.97-3.06-12.99-8.81-17.09-15.97-12.36-21.54-13.01-44.8-11.53-68.77,1.19-19.27,9.52-34.43,23.38-46.86,4.59-4.12,4.55-7.18,1.18-11.61-3.82-5.03-7.36-10.29-10.84-15.57-2.73-4.14-5.83-8.14-6.58-13.28-6.26-7.8-4.98-17.03-4.1-25.76,3.49-34.43,34.8-63.99,72.9-65.15,2.34-.07,4.63,.29,6.65,1.65,.86,.76,1.21,1.72,1.08,2.87-1.77,2.09-4.36,2.94-6.57,4.38-16.29,5.26-31.25,13.13-45.15,23.08-14.05,10.06-19.86,36.39-10.56,50.95,5.21,8.15,10.07,16.46,14.94,24.8,5.15,8.83,8.02,9.75,17.09,5.69,12.23-5.47,24.55-9.4,38.24-10.38,19.79-1.41,37.92-9.85,56.27-16.89,3.73-1.43,7.38-3.21,11.47-3.29,4.34-.08,8.02,1.44,9.4,5.89,1.33,4.27-.06,7.87-3.86,10.4-5.35,3.57-11.56,5.11-17.49,7.28-21.58,7.88-43.28,14.47-66.4,17.58-18.99,2.55-36.92,11.22-51.39,25-5.43,5.16-9.63,11.34-11.05,18.67-4.23,21.88-4.96,43.63,4.03,64.76,5.19,12.21,9.49,14.91,22.67,15.43,21.08,.84,41.17-2.19,59.66-13.06,3.43-2.02,7.25-3.43,11.29-3.85,4.48-.47,7.91,1.35,9.74,5.42,2.03,4.49-.2,7.79-3.86,10.16-16.75,10.86-34.79,18.59-54.89,19.62-9.73,.5-16.41,4.41-21.35,12.34-15.51,24.92-19.93,51.13-9.59,79.21,4.54,12.31,13.28,18.84,26.18,19.78,7.97,.58,15.98,.79,23.89-.97,3.25-.72,6.52-1.45,9.85-1.67,4.9-.32,8.63,1.74,10.09,6.42,1.56,5-1.33,8.56-5.52,10.5-8.63,4-17.99,5.01-27.32,4.25-18.86-1.53-23.59,.95-30.08,18.57-5.22,14.16-8.66,28.76-6.61,44.02,3.06,22.78,18.16,37.41,35.53,49.74,26.95,19.12,56.44,34.11,85.32,50,28.01,15.41,55.97,30.92,84.31,45.77,29.34,15.37,60.92,21.03,92.98,25.4,35.98,4.91,71.81,10.81,107.67,16.47,13.04,2.06,24.89,7.29,35.78,14.68,10.53,7.15,21.93,12.61,33.61,17.55,14.76,6.24,28.45,14.58,42.68,21.86,33.22,16.98,66.64,33.59,100.84,48.54,12,5.25,22.46,13.04,33.25,20.25,8.97,6,17.94,7.34,28.37,3.9,14.68-4.85,27.07-12.5,36.7-24.69,11.78-14.91,23.84-29.68,32.84-46.47,17.75-33.09,25.14-69.25,30.08-106.03,3.96-29.53,2.44-59.27,1.52-88.83-.79-25.57-5.48-50.96-11.08-76.03-.86-3.84-2.6-7.67-.7-11.7,6.84-3.34,10.6,2.27,15.26,5.27,5.22,15.86,7.3,32.35,9.48,48.78,5.45,41.13,4.14,82.44,2.22,123.71-1,21.41-7.94,41.75-12.64,62.51-9.62,42.44-33.58,76.34-62.48,107.39-13.21,14.19-29.89,21.78-49.07,24.42-7.63,1.05-14.55-.16-21.21-3.67-2.36-1.24-4.8-2.4-6.91-4-19.3-14.6-41.35-24.09-63.22-33.86-31.33-13.99-61.47-30.32-91.58-46.69-9.93-5.4-20.01-10.48-30.86-13.84Z"/>
    <path d="M52.62,1525.58c-5.64,3.2-9.05,.12-12-4.26,.97-9.72,5.13-18.4,9.02-27.12,6.77-15.17,15.68-29.11,25.26-42.65,2.28-3.23,4.32-6.63,6.48-9.95,4.65-4.78,10.01-8.6,15.65-12.15,19.22-12.09,39.37-22.35,60.81-29.76,19.52-6.74,34.46-18.57,43.83-36.97,11.35-22.3,25.83-42.66,38.92-63.88,8.04-13.03,15.23-26.53,21.91-40.31,4.79-9.88,9.58-19.76,15.35-29.11,13.57-21.96,20.13-46.11,22.97-71.55,1.36-12.18,2.12-24.5,5.93-36.3,3.09-8.64,8.22-16.23,12.65-24.15,2.26-4.04,5.33-6.8,7.47,.38,.11,11.14-3.77,21.6-5.78,32.36-4.26,22.88-4.55,46.38-11.71,68.82-9,28.23-25.5,52.7-38.47,78.94-16.42,33.22-38.9,62.85-56.67,95.32-9.67,17.68-22.36,32.57-43.49,38.74-12.97,3.78-25.08,10.79-37.69,15.93-29.89,12.21-49.28,34.28-62.98,62.47-4.23,8.69-8.73,17.23-11.53,26.56-1.03,3.41-1.76,7.29-5.95,8.63Z"/>
    <path class="cls-7" d="M2037.16,1565.45c-5.66-.07-9.68-4.41-14.86-5.7-3.04-.09-3.99-2.51-5.19-4.65-7.94-19.89-18.65-38.25-31.48-55.3-11.21-14.9-27.96-22.18-44.15-29.85-13.2-6.25-26.57-12.29-40.39-17.08-11.5-3.99-20.28-11.16-27.15-20.93-9.68-13.78-20.29-27.06-24.59-43.87,3.2-5.59,6.08-1.44,8.56,.57,6,4.87,10.3,11.3,14.66,17.56,3.81,5.47,7.92,10.61,12.71,15.23,9.16,10.1,20.51,16.82,33.26,21.29,22.4,7.85,43.12,19.15,63.74,30.69,8.51,5.47,14.59,13.15,20.26,21.38,13.37,19.4,25.65,39.31,32.72,62.01,.89,2.85,2.01,5.6,1.88,8.65Z"/>
    <path class="cls-11" d="M1298.95,1145.82c-1.55-2.22-3.89-2.27-6.23-2.2-42.42,1.17-77.59,36.61-71.69,81.71,.3,2.27,1,4.48,1.52,6.72-2.48-2.73-4.71-1.03-6.92,.42-30.39,19.83-65.1,25.87-99.99,31.35-1.61,.25-3.3,0-4.95-.02-.15-8.27,7.61-10.71,11.67-15.9,3.78-2.93,8.59-2.62,12.83-4.11,22.63-4.28,44.84-9.63,65.36-20.84,9.5-5.19,14.73-11.35,13.75-22.76-1.52-17.81,6-31.11,20.82-41.41,16.6-11.54,33.89-21.21,53.64-25.76,8.29-1.91,13.34-6.52,16.6-14.17,13.68-32.17,26.42-64.76,40.96-96.52,20.64-45.1,39.89-90.82,61.05-135.69,3.98-8.44,8.4-16.82,10.13-25.99,1.77-9.38,7.64-12.59,16.02-13.4,2.99-.29,5.99-.24,8.98-.31,10.43-.22,18.04-4.45,23.79-13.68,15.13-24.26,33.46-46.55,45.16-72.94,6.2-13.98,13.23-27.59,17.14-42.55,5.44-20.84-4.44-36.83-15.8-52.43-2.12-2.9-5.77-3.24-9.14-3.1-10.29,.43-19.71-2.57-28.86-6.86-2.2-1.38-4.48-2.71-4.64-5.73,1.63-3.65,1.74-8,5.01-10.91,7.12-1.42,12.54,3.69,19.02,4.98,13.8,2.75,14.94,1.32,16.13-12.39,1.96-22.62,1.4-45.23,1.87-67.86,.29-13.83-2.28-27.09-5.22-40.47-3.92-17.84-5.84-35.8-6.5-54.28-1.02-28.64,7.84-55.19,12.2-82.66,1.64-10.31,1.35-20.57,1.26-30.89-.05-5.6-2.59-10.27-5.88-14.57-6.58-8.58-14.52-15.6-24.21-20.48-13.13-6.6-25.27-14.85-37.72-22.57-9.24-5.73-16.29-13.51-21.14-23.41-4.54-9.28-9.12-18.56-12.81-28.19-14.18-37.06-39.29-64.44-73.49-83.89-2.51-1.74-5.54-2.81-7.31-5.54-1.6-5.49-7.25-9.85-4.64-16.53,34.58,12.86,61.02,35.9,82.13,65.64,7.38,10.4,12.59,21.89,17.5,33.57,3.61,8.59,7.14,17.21,10.91,25.73,4.02,9.07,10.16,15.88,19.19,20.78,14.61,7.93,28.68,16.86,42.82,25.61,6.8,4.21,12.87,9.39,17.56,16,10.43,16.07,13.4,33.78,11.62,52.55-.18,1.92-1.34,3.86,.23,5.7,.27,8.17-3.04,15.6-4.86,23.34-9.03,38.47-11.13,76.99-.57,115.54,6.44,23.5,6.52,47.45,4.66,71.41-1.44,18.66-1.05,37.28-1.01,55.93,.02,6.04,2.78,10.81,6.19,15.45,5.58,7.59,9.59,15.87,11.77,25.13,3.11,13.18,1.3,25.89-3.31,38.24-11.21,30.06-25.04,58.78-44,84.85-5.67,7.8-11.61,15.61-15.88,24.18-7.72,15.48-20.34,22.87-36.73,23.28-9.14,.23-12.13,4.43-15.35,12.02-13.52,31.86-27.38,63.59-42.08,94.92-23.19,49.44-43.51,100.12-65.26,150.17-1.31,3.01-2.98,5.74,2.42,5.7,1.07,4.27-2.17,6.8-4.44,9.22-2.12,2.27-1.68,4.31-1.47,6.69-6.04,4.15-12.35,6.98-19.83,4.14Z"/>
    <path class="cls-27" d="M1319.34,1139.92c-1.46-.66-4.53-.3-2.47-3.35,2.49-3.68,5.21-7.21,7.83-10.8,14.87-4.91,30.32-7.45,45.49-11.16,30.34-7.42,60.78-14.48,91.16-21.74,5.57-1.33,11.23-1.56,16.88-1.39,21.66,.63,43.2,2.37,64.1,8.68,7,2.12,14.06,3.91,21.32,4.94,2.76-3.03,.35-5.68-.45-8.34-8.42-28.03-19.84-55.07-27.37-83.41-5.89-22.18-11.54-44.44-18.34-66.34-6.32-20.34-6.59-40.6-2.36-61.11,3.09-14.98,6.32-29.95,10.2-44.75,8.7-33.21,24.73-63.06,43.01-91.83,9.48-14.92,24.19-23.55,39.1-31.7,5.82-3.18,12.59-4.17,19.34-2.14,1.38,5.52-5.05,7.9-5.14,12.84-.73,1.88-2.3,2.71-4.08,3.29-.87,.33-1.76,.6-2.65,.88-1.34,.59-2.64,1.26-3.93,1.97-18.28,9.3-29.71,24.54-39.99,41.94-21.58,36.52-33.68,75.93-40.51,117.37-2.58,15.7-1.76,30.88,2.78,46.33,10.89,37.07,19.07,74.93,32.09,111.38,6.28,17.58,12.41,35.18,17.6,53.12,4.31,14.89-1.12,20.9-16.49,18.31-14.17-2.39-27.75-7.08-41.71-10.29-34.82-8.01-68.78-4.16-102.44,6.42-30.58,9.61-62.48,13.67-93.43,21.75-3.21,.84-6.56,1.58-9.54-.88Z"/>
    <path d="M830.9,1111.2c2.21,5.95,8.95,8.48,11.05,14.8-11.5-9.59-24.75-14.55-39.28-16.38-1.65,1.51-3.7,1.63-5.62,1.08-22.96-6.54-46.23-11.95-69.01-19.17-4.11-2.67-8.25-5.42-9.79-10.4-1.27-4.09-.92-7.32,4.83-5.68,4.74-.5,8.96,1.98,13.56,2.32,2.45,.86,3.08-.16,2.5-2.42-7.5-13.45-12.54-27.85-16.31-42.73-3.19-12.59-7.07-24.94-12.85-36.62-4.36-8.81-5.55-18.44-6.85-27.96-3.34-24.37-6.88-48.73-9.34-73.19-1.29-12.84-.77-25.89-.49-38.84,.15-6.69-1.88-10.63-7.94-14.33-11.63-7.08-22.97-15.3-31.5-25.87-12.54-15.52-20.03-34.05-20.84-54.02-1.52-37.65,1.83-74.99,8.99-112.1,3.78-19.6,14.09-31.67,33.08-36.79,1.28-.34,2.51-.86,3.77-1.3-.12-12.11,1.37-13.6,14.11-14.14,1.09,.09,2.16,.3,3.22,.57,4.88,1.45,9.93,.47,14.86,1.07,6.1,.74,11,2.91,11.08,10.23-1.43,4.61-5.49,5.65-9.38,6.27-15.84,2.51-28.7,12.09-43.09,18.01-6.29,2.59-8.78,8.82-10.07,15.25-7.34,36.64-12.45,73.56-9.87,111.01,2,29.03,16.75,50.99,41.8,65.21,13.62,7.74,18.82,17.92,18.18,33.36-1.64,39.47,5.95,78.2,12.03,116.9,3.08,19.62,13.89,37.35,18.41,56.87,2.79,12.06,7.31,23.46,13.15,34.4,5.28,9.88,12.39,16.48,23.82,19.33,17.73,4.41,35.41,9.47,51.03,19.61,1.85,1.43,3.15,3.12,2.77,5.64Z"/>
    <path class="cls-27" d="M723.08,1075.45c-2.43,.39-4.39,.92-3.25,4.26,1.57,4.62,5.54,6.85,8.93,9.71-3.55,3.38-7.58,1.49-11.37,.83-25.28-4.46-50.39-10.07-74.8-17.82-34.35-10.9-68.24-8.99-102.33-.12-9.35,2.43-18.62,5.23-28.09,7.07-15.81,3.08-22.61-4.36-17.29-19.51,18.1-51.56,33.59-103.87,47.77-156.64,5.79-21.53,6.61-42.2,2.46-63.94-7.31-38.34-19.81-74.47-39.54-108.26-9.28-15.9-20.1-29.72-36.44-38.64-2.29-1.82-5.23-2.8-7.01-5.29-3.29-9.41-12.64-10.06-19.89-13.75,10.95-3.7,21.59-3.01,31.72,2.6,18.44,10.22,32.56,24.38,43.58,42.72,27.1,45.13,41.7,94.02,47.71,145.9,1.26,10.86-.79,21.23-3.52,31.55-13.71,51.78-27.8,103.45-46.3,153.79-1.24,3.37-3.08,6.7-2.75,10.94,5.02,1.81,9.88-.44,14.29-1.9,20.11-6.66,40.92-8.87,61.81-10.82,16.53-1.54,32.62,1.27,48.34,5.72,27.54,7.79,55.71,12.93,83.35,20.22,.92,.24,1.74,.91,2.6,1.38Z"/>
    <path d="M916.73,141.71c5.86-2.53,12.14-3.34,18.35-4.27,11.39-1.7,22.01-5.35,31-12.62,21.74-17.58,48.03-25.12,73.76-33.9,7.73-2.64,15.82-2.13,23.73-1.32,18.62,1.89,36.47-.21,53.24-8.93,5.16-2.68,10.56-3.51,16.35-3.48,17.61,.1,34.19,3.97,49.58,12.65,1.98,3.35-.34,4.72-2.84,5.65-3.3,1.23-6.8,1.82-10.26,2.43-10.09,.37-19.53-3.61-29.54-4.34-6.9-.5-13.17-.2-19.34,2.91-18.47,9.3-38.23,11.22-58.41,9.21-7.12-.71-14.33-1.13-20.73,1.3-20.73,7.89-42.9,12.64-60.88,26.85-13.31,10.53-28.2,17.39-45.19,19.79-12.53,1.77-24.7,5.47-37.07,8.1-16.06,3.42-28.85,11.67-39.08,24.23-13.11,16.1-28.93,29.11-44.88,42.34-14.72,12.2-30.01,21.77-48.23,26.89-1.29,.44-2.61,.82-3.89,1.27-.76,.37-1.53,.72-2.28,1.13-1.04,.72-2.04,1.51-3.07,2.26-1.62,.97-3.25,1.13-4.9,.05-2.59-3.03-3.92-6.71-5.4-10.32,.57-1.52,1.79-2.13,3.28-2.37,5.92,1.5,11.29,1.7,14.51-5.01,1.16-2.43,4.23-2.96,6.2-4.66,26.77-11.66,47-31.94,67.8-51.46,2.9-2.72,5.64-5.6,8.45-8.41,20.7-16.94,44.95-26.98,69.75-35.96Z"/>
    <path d="M442.24,673.35c8.73-1.27,15.24,2.37,20.38,9.12,.9,1.18,1.4,2.2-.11,3.22-.79,.55-1.67,.83-2.63,.8-4.66-.55-9.3-1-13.54,1.76-16.88,7.85-18.75,11.45-15.66,30.28,2.8,17.06,5.51,34.2,9.55,50.97,9.41,39.06,4.63,77.41-4.98,115.38-9.14,36.13-29.61,67.39-45.99,100.35-10.35,20.82-22.47,40.75-36.45,59.44-1.15,1.31-2.49,2.44-3.65,3.73-.45,.6-.93,1.2-1.39,1.8-.36,.62-.75,1.24-1.11,1.87-.3,.65-.66,1.29-1.01,1.92-.52,.97-1.01,1.96-1.47,2.98-.3,.75-.65,1.45-1.04,2.16-.64,1.15-1.41,2.16-2.53,2.89-.99,.01-1.81-.33-2.49-1.04-2.3-4.6,.36-8.37,2.26-12.1,7.35-14.42,13.53-29.36,20.08-44.13,5.6-11.66,11.28-23.28,17.99-34.37,5.34-8.81,10.72-17.63,12.41-28.07,.45-2.75,2.26-4.77,3.74-6.96,16.72-24.7,26.07-52.15,30.19-81.5,1.48-10.52,2.6-21.1,3.7-31.66,2.11-20.2-3.07-39.62-6.53-59.21-2.66-15.04-6.45-29.86-8.17-45.07-.56-4.99-.92-9.96-.43-14.92,1.85-18.61,9.92-26.81,28.89-29.62Z"/>
    <path d="M746.75,249.59c5.72,1.27,4.61,6.58,6.11,10.34,.14,.67,.4,1.53,.03,1.94-15.45,17.26-21.56,40.6-37.37,57.6-5.75,6.19-9.07,13.35-8.1,21.78,1.91,16.54-7.22,27.01-19.28,35.74-8.93,6.47-17.27,13.51-25.38,20.99-8.61,7.94-12.02,17.46-8.36,27.93,6.79,19.38,7.37,37.73-1.02,57.04-4.72,10.85-5.49,22.94,.5,34.87,3.42,6.81,1.9,15.06-.37,22.56-1.54,5.1-3.4,10.11-4.56,15.33-2.55,11.39,.09,17.27,10.33,23.23,6.61,3.85,13.55,7.16,19.72,11.77,.69,.87,1.12,1.84,1.34,2.93-.37,5.11-.94,10.07-7.85,10.08-8.53-4.44-17.34-8.44-25.54-13.43-11.82-7.21-17.31-21.67-14.48-35.53,1.27-6.23,3.4-12.16,5.76-18.03,2.93-7.28,2.87-14.25-2.01-20.79-4.61-6.17-4.56-13.06-2.56-20.03,3.37-11.75,3.7-24.35,10.33-35.25,2.08-3.42,1.11-7.82,.05-11.74-1.91-7.06-3.86-14.11-5.83-21.16-4.15-14.84-.73-27.74,10.33-38.35,9.12-8.75,18.1-17.75,29.31-23.97,5.12-2.84,8.31-7.64,11.95-11.93,1.98-2.33,2.62-5.29,2-8.45-2.65-13.55,1.92-25.2,10.77-34.93,8.64-9.51,14.96-20.18,20.42-31.69,5.45-11.48,12.71-21.82,23.78-28.85Z"/>
    <path d="M1621.36,727.91c-2.95-1.99-.77-4,.24-5.66,1.47-2.41,3.42-4.53,5.17-6.77,7.55-.68,14.47,1.81,21.19,4.65,8.22,3.47,12.88,9.99,14.96,18.68,2.87,12.02,.99,23.86-1.11,35.61-3.21,17.98-6.86,35.87-10.53,53.76-3.8,18.52-2.72,37-.51,55.57,3.04,25.56,8.42,50.43,19.87,73.7,1.47,2.98,2.63,6.2,4.57,8.84,8.59,11.66,13.15,25.12,17.8,38.56,12.19,24.74,21.27,51.03,37.06,73.99,2.25,3.27,3.98,6.97,5.12,10.81,.87,2.94,1.61,6.12-3,6.78-3.24-.75-4.84-3.36-6.49-5.85-21.65-32.8-41.17-66.73-58.07-102.31-10.44-21.97-22.02-43.28-27.31-67.27-7.95-36.05-11.7-72.13-3.19-108.76,4.06-17.48,7.56-35.13,9.95-52.97,2.3-17.17-.6-22.1-16.94-27.05-3.16-.96-6.53-1.51-8.79-4.32Z"/>
    <path class="cls-7" d="M1772.85,1177.61c3.7,11.83,3.57,24.24,5.57,36.34,3.39,20.57,9.86,39.93,20.57,57.85,10.57,17.7,19.21,36.39,28.05,54.97,4.85,12.12,8.58,24.63,12.75,36.99-.31,.94-.87,1.68-1.69,2.23-.96,.17-1.87,0-2.72-.48-.78-.54-1.48-1.18-2.11-1.89-1.26-1.44-2.7-2.72-4.12-4.02-5.42-5.57-9.11-12.37-12.55-19.13-12.24-24-25.65-47.38-37.92-71.35-11.37-22.22-16.36-46.09-18.78-70.86-2.26-23.16-6.42-46.12-14.91-68.01-1.56-4.03-3.31-8-4.2-12.25-.44-1.97-.79-3.97-1.16-5.96-.15-1.02-.06-2.02,.24-3,6.45-4.36,7.22,2.2,8.79,5.19,9.79,18.72,18.59,37.88,22.54,58.87,.29,1.55,.3,3.31,1.66,4.51Z"/>
    <path class="cls-6" d="M1168.44,95.75c3.58-.39,6.75-2.54,10.51-2.26,2.37,.17,3.48-1.45,3.79-3.65,22.5,11.45,46.81,18.85,69.01,30.96,5.67,3.09,11.92,3.88,18.18,4.86,19.36,3.05,38.75,6.07,56.79,14.36,.81,5.68,5.59,9.83,6.01,15.66-3.74,2.61-7.06,.17-10.34-1.05-15.66-5.82-31.76-9.98-48.31-12.11-13.39-1.72-25.68-6.15-37.79-12.06-19.4-9.48-40.11-16.14-59.12-26.58-2.89-1.59-6.27-2.33-8.45-5.1-.63-.96-.73-1.97-.29-3.03Z"/>
    <path class="cls-13" d="M1772.85,1177.61c-5.42-5.55-5.88-13.13-8.05-19.97-5.23-16.51-12.8-31.98-20.84-47.22-1.64-3.12-2.93-.95-3.37,1.33-6.9-3.22-9.21-8.78-8.2-16.04,1.65-.99,2.23-2.3,1.3-4.12-2.54-5.03-4.43-10.53-7.69-15.03-11.99-16.54-19.16-35.44-27.14-53.93-2.46-5.69-5.84-11.21-5.85-17.76,5.08,6.6,9.28,13.78,12.88,21.23,6.69,13.83,14.83,26.72,23.45,39.39,21.19,31.14,36.91,64.62,42.58,102.24,.49,3.27,.62,6.59,.92,9.89Z"/>
    <path class="cls-13" d="M360.45,1004.73c-.92,11.56-6.8,21.38-11.22,31.69-2.62,6.11-5.85,11.97-8.84,17.92-1.22,2.43-2.59,4.82,.02,7.22-1.58,13.67-6.74,25.83-15.45,36.48-.4-1-.55-3.4-1.61-2.44-1.82,1.63-2.8,4.27-3.9,6.6-3.36,7.04-7.63,13.46-12.69,19.38,1.12-13.3,4.54-26.08,9.32-38.46,10.92-28.3,25.79-54.41,44.38-78.4Z"/>
    <path class="cls-13" d="M1836.39,1366.02c1.98-1.36,2.23-3.09,1-5.05-6.58-10.46-8.27-22.39-10.35-34.2,13.73,23.02,29.74,44.6,42.47,68.26,4.85,9.02,10.51,17.6,15.79,26.38-9.24-4.78-14.33-13.55-20.2-21.45-3.42-4.6-7.58-8.33-11.49-12.37-1.13-1.17-2.32-.94-3.13,.57-8.52-4.94-13.12-12.38-14.09-22.13Z"/>
    <path class="cls-21" d="M916.73,141.71c-4.12,4.26-10.02,4.95-15,7.47-17.19,8.71-34.96,16.36-51.04,27.18-1.05,.71-2.46,.88-3.71,1.3,10.98-15.89,25.78-26.21,44.63-30.64,8.33-1.96,16.5-4.71,25.11-5.32Z"/>
    <path class="cls-8" d="M1528.69,385.58c-1.75-1.39-2.1-3.35-1.89-5.35,1.78-17.27-3.38-33.21-9.19-49.05-.45-1.21-.53-2.56-.78-3.85,9.4,8.04,13.84,18.34,13.78,30.6-.04,9.25,1.03,18.59-1.92,27.64Z"/>
    <path class="cls-16" d="M770.74,237.54c-2.89,3.9-5.67,7.89-8.71,11.67-2.72,3.38-5.67,5.71-8.84,.19-.57-1-2.08-1.47-3.16-2.18,6.1-4.93,12.84-8.52,20.7-9.68Z"/>
    <path class="cls-2" d="M672.48,603.74c4.31-2.14,5.6-6.14,6.41-10.43,5.56,.12,11.17,.11,14.26,6.05-1.66,.11-3.35,.03-4.96,.36-6.54,1.32-7.07,2.11-7.67,9.59-.06,.81-1.08,1.54-1.66,2.3,1.93-5.91-4.59-4.97-6.38-7.87Z"/>
    <path class="cls-22" d="M739.14,1075.35c1.41,.75,1.97,2.01,.86,3.14-1.16,1.19-2.38,.23-3.36-.72,.83-.81,1.67-1.62,2.5-2.42Z"/>
    <path class="cls-6" d="M1122.75,1249.52c-2.9,5.71-9.26,8.49-12.07,14.28-8.4,2.94-17.21,2.37-25.61,1.27-17.48-2.29-35.15-.86-52.55-3.51-19.95-3.03-40.45-2.06-60-7.98-6.92-2.1-14.13-3.52-20.27-7.71-4.9-6.65-11.94-11.26-16.94-17.77-1.74-2.26-6.52-5.53,.39-7.75,8.32,1.7,14.99,6.98,22.46,10.49,17.56,8.24,36.31,9.71,55.1,11.96,24.07,2.88,48.29,3.35,72.38,5.65,8.23,.79,16.58,.64,24.83-.72,4.22-.7,8.6-1.66,12.27,1.79Z"/>
    <path class="cls-4" d="M933.02,1220.88c4,8.27,12.09,12.87,17.66,19.72,1.15,1.42,4.79,2.43,1.57,5.27-12.52-4.38-23.57-11.28-33.68-19.77,.83-4.41,2.07-8.56,6.59-10.7,5.08-1.71,7.05,1.05,7.86,5.48Z"/>
    <path class="cls-1" d="M468.58,689.56c17.07,7.8,27.97,21.36,37.55,37.16,23.51,38.77,37.01,80.79,43.96,125.24,2.07,13.25,2.23,26.27-1.54,39.45-8.88,30.98-16.97,62.19-25.68,93.22-7.1,25.29-18.02,49.33-24.91,74.7-.61,2.24-1.45,4.43-1.99,6.68-2.12,8.79,1.26,13.01,10.34,11.52,9.81-1.61,19.56-3.95,29.11-6.76,21.57-6.35,43.65-8.66,65.98-9.18,9.73-.23,19.09,2.55,28.4,4.95,31.85,8.22,63.68,16.5,95.99,22.76,.96,.19,1.98,.08,2.97,.12,19.52,5.34,39.05,10.67,58.57,16.01,5.11,1.4,10.23,2.79,15.34,4.19,9.93,6.05,19.94,11.97,29.76,18.2,10.29,6.53,16.47,15.25,14.74,28.28-.7,5.25-.27,10.65-.49,15.97-.17,4.07-1.09,8.17-3.79,11.17-6.34,7.06-10.23,15.54-14.69,23.7-1.11,2.04-2.43,3.98-3.77,5.88-2.87,4.08-6.38,5.41-11.2,3.07-4.78-2.33-9.75-4.28-14.69-6.26-8.67-3.47-17.45-5.53-27-6.13-13.23-.83-26.15-4.57-38.58-9.58-8.64-3.48-17.36-6.79-26.17-9.78-6.91-2.34-10.7-1.19-12.07,2.82-1.44,4.21,.49,6.99,7.56,9.65,19.92,7.48,39.61,15.73,60.69,19.66,1.96,.37,3.92,1.09,5.88,1.05,21.37-.36,39.12,9.81,56.61,20.06,13.02,7.63,20.74,19.36,22.18,34.87,1.99,21.37,3.04,42.43-7.25,62.52-4.98,9.72-11.31,14.83-22.69,14.02-6.94-.5-13.96-.53-20.93-.99-12.11-.8-23.61-3.69-34.38-9.48-5.26-2.83-10.5-5.81-16.37-7.33-3.84-1-6.49,.39-8.06,3.95-1.56,3.53,.34,5.94,3.07,7.48,17.48,9.9,35.39,18.85,56.11,18.79,8.57-.03,14.7,3.37,19.27,10.25,17.43,26.26,22.55,54.18,12.42,84.63-4.62,13.88-13.97,20.71-27.99,21.46-10.62,.56-21.32,.98-31.8-1.74-1.29-.33-2.61-.58-3.92-.77-3.7-.54-6.7,.49-7.91,4.32-1.26,4.01,1,6.4,4.4,7.77,6.86,2.76,14.02,4.19,21.43,4.21,6.66,.02,13.33-.06,19.99,0,5.42,.05,9.78,2.29,12.33,7.13,9.84,18.69,14.83,38.58,12.49,59.67-1.91,17.19-12.51,29.81-24.65,41.11-9.56,8.91-20.7,15.73-31.99,22.14-32.42,18.42-65.18,36.25-97.53,54.81-19.94,11.44-40.51,21.61-60.94,32.08-17.98,9.21-37.35,14.07-57.12,17.19-43.71,6.9-87.48,13.43-131.23,20.09-14,2.13-27.19,6.37-38.81,14.76-6.78,4.89-14.02,9.09-21.69,12.29-20.92,8.73-40.79,19.55-60.73,30.19-28.22,15.06-57.26,28.39-86.26,41.81-14.56,6.74-28.66,14.24-41.45,23.9-10.02,7.57-20.52,8.39-32.05,4.62-12.62-4.12-23.85-10.53-32.57-20.52-14.04-16.07-27.06-32.93-37.57-51.62-8.21-14.61-14.43-29.91-18.03-46.33-2.56-11.69-6.01-23.18-8.74-34.83-3.74-15.95-5.4-32.22-5.27-48.55,.22-28.3-1.93-56.68,1.54-84.88,2.34-19.1,4.03-38.37,10-56.86,11.73-3.4,23.55-6.39,34.19-12.88,32.35-19.74,67.51-34.69,97.54-58.47,12.67-10.03,24.33-20.59,33.45-33.98,24.78-36.35,45.79-74.87,66.53-113.58,18.57-34.66,33.28-71.1,50.39-106.43,2.91-6.01,5-12.37,6.28-18.94,4.34-22.41,17.71-40.7,27.11-60.83,16.04-34.36,33.59-68.13,45.27-104.41,8.8-27.34,21.84-52.93,32.75-79.4,17.63-42.77,30.74-86.76,29.62-133.55-.48-20.22-2.83-40.6-7.78-60.28-4.39-17.47-3.69-35.02-4.1-52.63-.06-2.7-.74-6.89,4.59-4.62Z"/>
    <path class="cls-1" d="M933.02,1220.88c-2.31-2.27-4.64-4.51-7.86-5.48-8.94-8.04-18.99-14.5-30.19-18.65-12.12-4.49-21.62-12.63-31.66-20.18-2.45-1.84-3.02-4-2.87-6.85,.29-5.62,.24-11.25,.46-16.88,.46-12.03-3.57-22.11-13-29.74-5.38-4.36-10.78-8.74-17-11.91l-2.37-3.15c-10.18-10.77-17.72-23.26-23.8-36.68-2.36-5.22-5.17-10.2-9.43-14-12.3-10.95-18.47-25.23-21.62-40.8-8.36-41.42-19.99-82.29-24.35-124.36-3.26-31.41-7.98-62.68-9.69-94.29-.91-16.88-2.81-33.83-6.39-50.45-6.83-31.7-10.75-63.62-9.49-96.15,.5-12.91,1.36-25.99-1.76-38.8,0-1.13,.16-2.25,.44-3.34,.31-1.06,.78-2.07,1.37-3.01,19.2-16.26,29.23-38.46,38.99-60.76,4.44-10.14,10.5-18.3,21.22-22.59,7.25-2.9,10.95-9.58,14.16-16.2,3.3-6.8,8.31-9.93,15.86-9.73,11.28,.31,22.61-.87,33.66,2.86,7.18,2.42,13.82,.14,19.83-4.02,9.33-6.45,18.21-13.65,25.84-21.91,9.85-10.68,21.28-12.65,34.52-9.68,4.22,.95,8.39,2.17,12.62,3.04,13.66,2.8,26.57,2.25,39.78-4.02,20.78-9.84,42.18-11.56,62.93,1.31,11.04,6.85,23.44,5.57,35.02,3.48,18.64-3.36,32.84,1.54,45.2,16.02,13.29,15.57,34.01,19.52,52.96,11.49,8.01-3.4,16.51-5.33,24.43-8.64,13.06-5.45,23.7-1.44,30.81,8.8,15.23,21.92,36.93,22.5,59.72,20.33,9.35-.89,18.58-1.84,27.76,.51,12.01,3.08,22.19,8.81,28.42,20.19,6.18,11.29,15.85,17.01,28.72,16.15,12.56-.84,20.23,4.95,24.34,16.3,5.09,14.07,15.15,20.02,29.96,19.94,14.36-.08,18.86,4.16,21.79,18.08,.14,.65,.42,1.31,.37,1.96-1.38,16.73,3.94,30.52,17.7,40.65,.78,2.21,3.71,1.63,4.68,3.59-2.81,27.91-7.55,55.55-18.5,81.43-14,33.08-30.38,65.14-42.52,99.04-3.27,9.14-9.06,17.04-13.56,25.57-19.75,37.39-37.76,75.64-55.7,113.91-13.16,28.08-30.97,53.64-43.19,82.16-5.39,12.59-12,24.42-19.52,35.89-7.52,11.48-15.46,22.77-25.25,32.12-26.05,24.87-47.85,53.66-73.84,78.56-14.2,13.6-28.34,27.18-44.4,38.62-1.79,1.28-4.43,2.12-3.36,5.27-3.66,2.99-8.73,1.08-12.52,3.61-9.63-.1-19.06,2.87-28.72,2.01-24.43-2.19-49.06-1.63-73.38-5.44-6.21-.97-12.53-1.76-18.81-1.8-23.79-.18-44.38-9.76-64.4-21.23-1.42-.82-2.95-1.46-4.42-2.18Z"/>
    <path class="cls-20" d="M468.58,689.56c-1.26,.39-2.8,.75-2.55,2.43,1.51,10.28,.56,20.61,.62,30.91,.03,4.43,1.25,8.52,2.05,12.74,2.73,14.31,6.07,28.45,6.6,43.18,.31,8.49,3.1,16.86,3.52,25.53,1.11,22.8-3.19,44.79-7.8,66.98-6.67,32.14-18.57,62.16-31.89,91.94-8.66,19.37-17.85,38.65-23.73,59.18-5.33,18.6-13.86,35.87-21.8,53.4-5.35,11.8-10.39,23.75-15.87,35.49-4.35,9.32-8.22,19.08-14.01,27.46-10.25,14.82-16.2,31.23-20.39,48.37-2.16,8.82-5.27,17.2-9.16,25.23-4.92,10.15-9.2,20.58-14.84,30.43-5.74,10.03-8.84,21.39-13.92,31.88-5.94,12.26-12.64,24.17-18.23,36.55-10.43,23.11-24.99,43.83-36.69,66.19-10.58,20.22-23.35,39.25-37.31,57.41-5.71,7.43-12.3,13.86-19.74,19.57-25.9,19.9-53.12,37.62-82.88,51.28-10.87,4.99-20.3,12.54-31.1,17.82-8.62,4.21-17.09,7.24-26.73,6.01-.04-1.32-.08-2.64-.12-3.96,7.36-22.99,18.58-44.01,32.05-63.98,6.28-9.31,13.87-16.86,23.4-22.74,11.64-7.19,23.83-13.28,36.3-18.82,8.51-3.78,16.9-8.21,25.81-10.62,17.37-4.71,29.09-15.95,37.47-30.8,19.61-34.78,43.35-67.07,61.52-102.72,8.01-15.71,16.8-31.01,25.04-46.6,12.14-22.97,18.51-47.52,20.49-73.41,1.32-17.26,5.22-34.14,9.04-51.01,.51-2.26,.83-4.56,1.24-6.84,5.15-12.16,10.3-24.32,15.45-36.48,.54-.33,.73-.8,.54-1.41,.24-.99,.97-1.7,1.47-2.53,.55-.31,.74-.78,.56-1.38,.23-1.03,.92-1.8,1.51-2.62,.54-.24,.72-.64,.53-1.2,.12-1.2,.91-2.01,1.65-2.85l.02-.04c1.3-.97,.87-2.94,2.24-3.87,22.98-32.32,42.57-66.57,58.23-103.03,1.05-2.43,2.21-4.86,3.64-7.08,15.33-23.62,23-49.99,27.5-77.41,1.88-11.46,2.89-23.07,4.09-34.64,2.2-21.19-2.77-41.66-6.47-62.25-2.65-14.71-6.2-29.24-8.23-44.07-2.77-20.29-.53-24.31,19.05-31.78,4.64-1.22,9.29-1.18,13.93-.03,.53,.46,1.13,.57,1.79,.33,1.5,2.12,4.88,1.27,6.07,3.86Z"/>
    <path class="cls-1" d="M1614.65,730.08c.71-.11,1.41-.21,2.12-.32,3.59,4.12,2.17,8.77,1.37,13.33-3.05,17.39-9.66,33.95-11.92,51.55-6.99,54.55-9.33,108.74,10.51,161.56,16.61,44.22,31.72,89.05,52.35,131.66,5.65,11.66,12.3,22.96,19.17,33.8,16.28,25.69,25.22,54.25,35.68,82.27,14.44,38.68,27.49,77.87,43.03,116.14,4.39,10.82,7.85,21.95,10.49,33.32,6.62,28.52,19.64,53.51,40.2,74.59,8.82,9.04,16.57,19.13,24.58,28.87,20.18,24.53,47.62,36.63,76.14,47.34,35.52,13.33,70.58,27.56,100.87,51.21,1.02,1.45,2.04,2.9,3.07,4.35,6.32,24.87,10.5,50.12,13.09,75.63,2.16,21.27,.1,42.63,1.16,63.9,2,39.97-8.15,77.9-18.9,115.7-4.31,15.14-12.5,28.64-20.9,41.87-8.4,13.25-18.14,25.54-28.36,37.39-11.24,13.03-25.5,20.98-42.57,24.18-6.34,1.19-11.83,.37-17.25-2.66-.29-.16-.61-.28-.88-.48-33.25-23.95-71.92-37.42-107.96-55.99-15.67-8.07-31.62-15.58-46.84-24.53-6.58-3.87-13.59-7.05-20.59-10.13-15.55-6.85-30.84-14.09-44.93-23.77-12.12-8.32-26.34-10.79-40.55-12.94-40.79-6.17-81.6-12.18-122.37-18.52-25.48-3.96-49.36-12.22-72.46-24.2-49.65-25.76-98.17-53.5-146.8-81.08-8.69-4.93-17.26-10.15-24.97-16.52-14.33-11.83-27.23-24.99-30.15-44.39-3.28-21.85,2.15-42.28,12.28-61.55,3.66-6.95,10.67-7.41,17.41-7.36,7.98,.06,15.98,1.03,23.91-.52,3.9-.77,7.84-1.61,11.57-2.94,3.65-1.3,6.72-3.65,4.93-8.25-1.56-4.03-4.75-5.43-8.89-4.11-9.7,3.1-19.7,2.89-29.69,2.85-2.32,0-4.66-.17-6.96-.45-13.68-1.67-21.91-9.1-26.23-22.4-9.81-30.2-4.37-57.73,12.72-83.66,4.55-6.91,10.86-10.24,19.33-10.23,20.73,.02,38.63-8.82,56.06-18.79,3.23-1.84,4.77-4.63,2.63-8.38-1.99-3.49-5-4.29-8.52-2.89-4.01,1.6-8.1,3.16-11.82,5.33-15.14,8.84-31.65,11.83-48.88,12.01-3.33,.03-6.71-.37-9.99,.07-11.35,1.51-18.12-3.67-22.69-13.72-5.45-12.01-9.25-24.2-8.61-37.54,.43-8.97,.28-17.92,1.51-26.9,1.79-13.1,8.17-23.1,18.54-30.71,13.59-9.98,29.21-15.89,45.05-21.02,4.91-1.59,10.61-.53,15.84-1.38,23.82-3.9,45.98-13.18,68.37-21.66,3.8-1.44,6.22-3.97,4.92-8.45-1.13-3.89-4.38-5.31-9.76-3.61-7.61,2.41-15.17,5.03-22.57,8.01-17.07,6.88-34.43,12.02-53.05,12.58-8.4,.25-15.9,4.6-23.62,7.64-2.47,.98-4.9,2.07-7.36,3.09-8.2,3.39-10.38,2.98-14.91-4.23-6-9.55-10.32-20.11-17.83-28.8-2.57-2.97-2.98-7.35-3.05-11.41-.1-5.66,.19-11.36-.31-16.98-.9-10.07,3.37-17.46,11.25-22.99,15-10.53,30.04-21.04,48.48-24.92,.94-.2,1.78-.88,2.67-1.34,1.74-1.76,4.42-.29,6.23-1.8l-.04,.03c6.92-1.56,13.87-2.98,20.39-5.9,36.57-8.47,73.55-15.2,109.78-25.17,6.09-1.68,12.24-3.11,18.32-4.84,29.86-8.52,59.34-4.09,88.72,2.69,11.01,2.54,21.86,5.76,32.9,8.13,11.19,2.41,15.17-1.99,11.96-12.94-3.08-10.52-6.07-21.12-9.97-31.35-16.75-43.9-26.87-89.76-40.43-134.59-7.02-23.21-3.54-45.25,.69-67.86,7.45-39.78,23.28-76.11,44.1-110.58,8.97-14.85,21.43-25.12,36.94-32.17,.81-.3,1.59-.68,2.32-1.15Z"/>
    <path class="cls-11" d="M1298.99,1145.79c-1.67,2.02-3.93,1.96-6.23,1.8,1.56-2.39,3.87-2.18,6.23-1.8Z"/>
    <path class="cls-20" d="M2019.23,1555.4c-7.48-.4-13.3-5.18-18.34-9.38-14.35-11.97-31.73-18.26-48.21-25.43-12.27-5.34-24.67-11.17-37.83-15-22.23-6.47-42.44-17.82-60.5-32.08-9.76-7.71-17.21-18.37-25.52-27.86-3.93-4.49-6.94-9.84-11.19-13.97-23.45-22.77-36.84-50.74-44.04-82.22-4.99-21.79-14.53-42.04-22.39-62.84-3.52-9.32-7.33-18.56-10.42-28.03-7.85-24.02-17.35-47.43-26.01-71.15-3.87-10.59-6.71-21.51-11.59-31.78-3-6.31-5.73-12.68-9.49-18.61-9.24-14.57-16.52-30.25-25.31-45.12-8.25-13.94-15.01-29.06-20.32-44.39-10.87-31.42-24.7-61.7-34.94-93.34-6.14-18.97-11.79-38.31-13.7-57.96-1.94-20.03-2.61-40.53,.94-60.71,.17-.98,.35-1.99,.3-2.98-1.49-28.01,5.69-54.59,13.05-81.19,1.93-6.98,3.63-14.18,3.04-21.6,1.53-.62,3.06-1.23,4.59-1.85,5.88,1.04,11.77,1.79,17.48,3.82,7.99,2.85,11.52,8.31,11.61,16.6,.13,11.74-2.34,23.11-4.51,34.53-2.99,15.66-6.02,31.31-9.04,46.96-3.52,18.2-2.32,36.4-.1,54.62,2.55,20.82,6.16,41.4,13.58,61.13,1.4,3.73,2.64,7.56,4.41,11.11,23.62,47.59,46.46,95.62,77.6,139.02,1.97,5.74,4.63,11.12,8.2,16.04,0,0-.04-.09-.04-.09,1.42,1.09,1.1,3,2.04,4.31,10.14,23.33,15.21,47.98,19.08,72.95,1.88,12.11,1.91,24.42,4.72,36.48,4.16,17.91,9.98,35.05,18.89,51.2,9.79,17.74,19.07,35.77,28.67,53.61,5.5,10.21,10.91,20.49,18.3,29.54,1.7,.72,1.26,2.82,2.49,3.85h0c.72,.7,1.42,1.42,1.72,2.43,0,0-.07,0-.07,0,3.96,7.85,8.73,15.18,14.09,22.13,8.25,17.47,18.22,33.86,30.48,48.84,4.1,5.01,8.93,8.57,15.02,11,18.49,7.37,36.81,15.15,54.83,23.68,21.33,10.1,38.65,24.15,49.89,45.37,6.66,12.57,14.92,24.32,18.54,38.34Z"/>
    <path class="cls-25" d="M693.15,599.35c-4.75-2.02-9.51-4.03-14.26-6.05-.08-.53-.2-1.04-.36-1.54-4.68-10.9-3.1-22.55-1.81-33.45,1.88-15.82,2.86-31.81,6.14-47.47,1.31-6.25,3.57-12,6.94-17.52,24.81-40.71,48.52-82.22,65.71-126.67,15.57-40.29,41.98-70.86,73.68-98.93,21.21-18.79,47.04-28.66,70.36-43.26,22.03-13.79,44.29-27.19,65.85-41.72,18.15-12.24,38.4-19.95,58.82-27.19,32.67-11.58,63.94-26.6,96.36-38.81,9.09-3.43,17.01-9.15,24.89-14.74,7.17-5.08,14.65-7.58,23.31-4.51,25.67,13.19,53.15,22.4,78.74,35.78,5.65,2.95,11.82,4.08,18.12,4.97,23.02,3.26,45.54,8.57,67.12,17.43,1.34,2.26,4.71,1.33,5.94,3.76,6.67,22.61,19.49,42.31,30.78,62.57,10.04,18.01,20.14,36,29.28,54.44,10.12,20.42,23.45,38.71,35.73,57.7,9.42,14.57,17.61,29.83,25.81,45.06,5.77,10.7,8.26,22.1,6.07,34.7-2.22,12.78-1.09,25.91-.48,38.88,.22,4.71,1.63,9.43,4.78,12.94,6.07,6.77,6.98,14.64,6.89,23.23-.24,22.98,0,45.96-.11,68.94-.07,13.67,.49,27.17,3.05,40.73,2.5,13.19,1.48,26.52-4.99,38.84-8.92,1.69-12.1-3.94-12.97-11.1-.84-6.93-1.25-13.91-2.49-20.8-2.72-15.08-12.47-24.98-27.89-24.87-14.06,.1-22.18-4.66-26.77-18.31-4.36-12.96-13.16-17.25-27.03-16.44-10.09,.59-17.75-2.71-23.49-11.79-13.14-20.81-32.22-29.56-56.89-26.49-11.56,1.44-23.3,1.04-34.91,.17-9.78-.74-17.01-5.8-23.17-13.78-11.74-15.21-21.71-21.38-39.05-14.94-8.08,3-16.53,5-24.49,8.5-19.39,8.51-35.21,4.85-49.53-10.65-13.27-14.37-28.96-22.17-49.13-16.67-13.59,3.71-25.71,.88-38.26-5.81-18.39-9.81-38.59-9.4-56.86-.27-16.86,8.42-32.86,9.3-50.03,3.23-17.28-6.1-32.03-2.15-44.32,11.4-2.68,2.95-5.68,5.62-8.51,8.44-12.27,12.23-25.43,19.75-43.67,12.26-7.63-3.13-16.48-1.55-24.78-.89-8.3,.67-14.35,5.02-18.09,12.4-4.36,8.61-10.45,15.15-19.62,18.95-6.39,2.65-10.14,8.27-13.32,14.34-6.19,11.81-11.1,24.21-17.01,36.14-2.22,4.48-4.74,8.76-7.5,12.95-9.92,15.07-23.39,20.76-40.99,16.1l-.78-.26-.82,.08Z"/>
    <path class="cls-15" d="M1135.27,1245.91c-1.61-.27-3.23-.55-4.78-.81-.41-2.41,1.36-2.86,2.66-3.73,14.39-9.63,27.63-20.69,39.73-33.02,14.19-14.47,29.77-27.65,41.99-43.98,8.63-11.53,19.15-21.24,29.41-31.16,18.06-17.46,32.7-37.54,45.76-58.77,5.18-8.43,8.51-18,12.78-27.01,8.41-17.74,18.37-34.64,27.81-51.83,12.47-22.71,23.69-46.08,33.77-69.96,3.89-9.21,8.45-17.99,13.35-26.7,6.85-12.17,12.14-25.23,19.11-37.32,12.66-21.99,20.59-45.98,30.82-68.99,7.82-17.59,15.39-35.34,23.86-52.66,9.43-19.29,13.53-40.06,17.34-60.97,1.57-8.64,1.83-17.68,6.21-25.67,10.58,4.13,21.23,7.92,32.9,6.61,4.26-.48,6.83,1.51,8.66,5.22,1.76,3.57,3.63,7.16,5.95,10.38,11.03,15.31,12.78,31.98,6.65,49.37-8.54,24.23-19.55,47.36-33.53,68.96-9.95,15.38-20.53,30.34-30.4,45.77-4.79,7.49-12.01,8.7-19.69,9.83-6.18,.91-12.42-.69-18.71,1.7-3.2,1.22-5.25,1.93-5.75,5.36-1.45,10.04-5.93,19.02-10,28.11-27.89,62.24-56.87,123.99-82.88,187.06-6.85,16.61-14.38,32.93-21.16,49.57-3.17,7.77-8.18,12.16-16.46,14.01-21.49,4.8-40.3,15.15-57.67,28.58-10.82,8.36-17.01,18.48-16.06,32.41,.05,.66,.01,1.33,.01,2q.03,18.29-16.29,27.43c-20.36,11.43-42.58,16.81-65.42,20.2Z"/>
    <path class="cls-9" d="M1474.69,637.61c.96-5.21,1.91-10.43,2.89-15.64,1.54-8.25,1.73-16.54-.03-24.73-2.04-9.47-2.91-18.96-2.85-28.65,.2-28.63,0-57.25,.13-85.88,.02-4.87-.65-8.96-4.47-12.58-5.32-5.03-7.64-11.83-7.49-18.97,.31-14.58-1.16-29.16,1.62-43.75,2.09-10.96-3-20.92-8.11-30.27-9.88-18.07-19.58-36.34-31.64-53.02-11.74-16.23-21.32-33.63-31.01-51.03-1.62-2.91-3.44-5.76-4.58-8.86-4.62-12.59-12.86-23.17-18.97-34.87-11.21-21.49-24.43-41.99-33.01-64.83-.78-2.08-2.53-4.45,1.51-5.1,33.71,18.14,58.62,44.44,73.6,79.81,4.93,11.64,9.72,23.33,15.34,34.66,5.04,10.16,12.49,17.67,22.47,23.28,13.9,7.82,27.16,16.74,41.2,24.37,4.03,2.19,7.59,5.39,11.04,8.5,10.09,9.09,15.84,19.65,15,34.14-.97,16.71-3.3,33.05-7.5,49.16-3.11,11.93-6.24,24.04-6.32,36.25-.15,22.82-1.74,45.93,4.99,68.24,7.84,25.98,7.02,52.52,6.4,79.16-.34,14.61-2.86,29.17-1.28,43.82,.51,4.69-1.44,6.53-6.19,6.66-8.14,.22-15.9-1.08-23.34-4.31-3.04-1.32-6.03-2.76-9.04-4.15-.58-.19-.82-.46-.74-.82,.09-.4,.22-.6,.37-.6Z"/>
    <path class="cls-27" d="M1474.69,637.61c.22,.45,.35,.92,.37,1.42-1.26,3.69,2.14,9.41-4.63,10.72-13.02-5.91-20.73-15.13-19.47-30.32,.47-5.66-.62-11.32-2.06-16.79-1.8-6.83-6.51-10.57-13.6-11.18-2.65-.23-5.33-.06-7.99-.11-15.03-.29-23.1-5.96-28.75-20.19-.61-1.55-1.24-3.09-1.8-4.65-2.68-7.53-7.81-11.33-15.98-10.65-1.99,.17-3.99,.09-5.99,.07-12.71-.12-22.79-5.31-28.69-16.63-7.87-15.1-21.33-20.11-36.83-21.76-5.63-.6-11.27,.27-16.9,1.05-13.66,1.88-27.21,1.44-40.47-2.88-7.84-2.55-14.58-6.48-18.56-14.09-1.4-2.69-3.35-4.94-5.6-6.96-6.97-6.26-13.81-10.19-24.07-5.89-8.49,3.56-17.67,5.65-26.26,9.34-20.4,8.74-42.65,3.78-57.01-13.33-11.22-13.37-24.07-18.01-41.56-14.08-14.62,3.28-29.72,3.21-42.89-7.16-7.17-5.65-16.51-4.89-25.05-5-10.72-.14-21.33,1.94-30.72,7.44-12.36,7.24-25.25,7.22-38.64,4.28-8.73-1.92-17.13-5.36-26.38-4.95-6.31,.28-11.35,2.08-16.02,6.62-8.58,8.35-17.73,16.12-26.74,24.03-8.74,7.67-18.46,9.98-29.62,5.53-10.92-4.35-22.37-2.1-33.63-1.97-2.85,.03-4.92,1.91-6.34,4.31-1.86,3.15-3.81,6.27-5.36,9.57-3,6.37-7.6,10.89-14.34,13.02-7.15,2.26-11.63,6.9-14.7,13.81-4.58,10.33-9.97,20.28-14.5,30.66-6.52,14.91-16.59,27.21-29.2,37.46-.81,.15-1.35,.62-1.67,1.37l-.16,.1c-.74,.69-1.43,.64-2.09-.12-.86-5.87-4.54-7.82-10.16-8.18-5.3-.34-11.03,2.15-15.87-1.95,1.33-.06,2.7-.35,3.98-.14,19.7,3.32,30.19-8.92,38.47-23.61,6.52-11.57,11.99-23.77,17.29-35.98,5.11-11.77,11.7-21.64,24.74-25.56,3.05-.92,4.93-3.26,6.45-5.94,1.97-3.48,4.04-6.89,5.94-10.4,4.19-7.75,10.94-11.64,19.44-11.97,12.28-.47,24.66-1.15,36.49,3.42,6.6,2.55,12.26,.91,17.47-3.53,7.09-6.04,14.57-11.6,20.77-18.65,12.8-14.59,28.51-18.5,46.91-12.62,4.73,1.51,9.67,2.36,14.48,3.65,9.85,2.65,19.23,1.23,27.93-3.75,18.15-10.41,37.4-10.47,57.13-6.6,3.96,.78,7.48,2.75,10.72,5.16,9.21,6.88,19.44,7.95,30.36,5.53,8.42-1.87,16.75-3.95,25.58-1.86,12.16,2.87,21.97,9.29,30,18.59,12.28,14.21,28.71,18.16,45.7,10.22,12.17-5.68,25.16-8.48,37.94-12.09,1.93-.55,3.92-1.23,5.81-.11,8.51,5.08,18.23,8.86,23.27,18.13,4.79,8.81,12.32,13.03,21.71,13.88,12.27,1.11,24.65,1.34,36.87-.55,20.48-3.16,44.85,7.85,55.72,25.63,7.47,12.22,12.68,14.76,27.11,12.01,5.15-.98,9.2,.22,12.95,3.3,6.57,5.38,11.39,11.9,14.12,20.13,3.42,10.33,5.88,11.91,16.69,12.01,5.34,.05,10.67-.03,15.75,1.9,9.94,3.78,17.28,10.26,19.29,21.03,1.27,6.81,3.35,13.66,2.59,20.7-.89,8.27,2.91,13.26,10.26,16.15Z"/>
    <path class="cls-20" d="M1614.65,730.08c-.47,1-1.23,1.41-2.32,1.15,.42-1.1,1.18-1.51,2.32-1.15Z"/>
    <path class="cls-20" d="M720.77,609.67c.7,.04,1.39,.08,2.09,.12,3.28,5.28,4.13,11.04,4.04,17.2-.21,14.66,.4,29.35-.16,43.99-.97,25.16,4.05,49.57,9.09,73.87,2.44,11.78,2.89,23.65,4.78,35.41,2.69,16.69,2.9,33.66,4.4,50.49,1.09,12.17,3.45,24.23,5.25,36.34,.15,.99,.44,1.98,.4,2.96-.64,16.09,3.28,31.57,5.77,47.3,2.44,15.4,5.04,30.72,8.64,45.87,3.74,15.77,7.44,31.52,10.07,47.53,1.39,8.49,4.08,16.77,7.58,24.73,2.99,6.79,6.95,12.81,12.59,17.76,5.83,5.11,9.92,11.37,12.83,18.68,3.57,8.97,8.9,17.04,14.57,24.89,2.44,3.38,6.05,6.39,5.83,11.24-18.36-10.49-38.53-16.13-58.72-21.57-5.6-1.51-9.36-4.32-12.63-8.81-8.54-11.74-14.21-24.81-18.02-38.67-4.77-17.31-9.62-34.52-17.14-50.94-5.18-11.32-5.07-23.98-6.88-36.1-3-20.04-5.66-40.15-7.72-60.3-.98-9.55-.22-19.28-.29-28.93-.04-5.32,.05-10.66-.31-15.96-.44-6.38-3.35-11.39-9.28-14.34-12.71-6.32-22.37-16.62-33.09-25.53-1.75-1.46-3.45-3.32-4.41-5.36-6.8-14.48-13.72-29.2-13.29-45.52,.49-18.59-.79-37.25,1.83-55.8,2.46-17.44,4.83-34.88,8.13-52.18,1.75-9.18,6.85-15.86,15.59-19.26,9.93-3.87,19.67-8.1,28.83-13.57,2.71-1.62,5.61-1.87,8.63-1.92,4.03-.06,7.88-.8,11.02-3.62Z"/>
    <path class="cls-26" d="M1168.75,97.49c-7.28-.81-13.92,.97-19.8,5.24-12.72,9.22-26.71,15.64-41.25,21.71-28.84,12.04-57.72,23.93-86.89,35.16-9.93,3.82-19.89,7.57-29.63,11.82-17.79,7.76-33.1,19.7-49.42,29.93-17.46,10.95-35.21,21.44-52.84,32.13-8.26,5.01-16.77,9.51-25.79,13.01-10.51,4.07-17.95,12.4-26.57,19.12-19.51,15.22-36.64,32.8-52.6,51.62-6.78,8-11.23,17.35-15.26,26.81-13.06,30.63-26.95,60.87-42.44,90.33-10.05,19.11-20.28,38.23-31.97,56.35-7.4,11.48-10.02,23.71-11.4,36.54-.67,6.25-.38,12.6-2.06,18.76-2.04,7.47-1.97,15.11-1.94,22.78,.03,7.66-.24,15.31-.38,22.97-9.32-2.88-17.14-8.71-25.44-13.46-6.96-3.98-9.17-11.33-7.78-19.1,.99-5.51,2.9-10.89,4.75-16.2,3.77-10.78,4.69-21.34-1.32-31.67-1.54-2.65-2.52-5.57-2-8.59,1.72-10.07,1.87-20.75,6.61-29.86,5.83-11.22,6.02-21.93,1.72-33.45-3.02-8.08-4.94-16.47-4.48-25.3,.26-4.93,1.75-9.08,5.17-12.55,8.15-8.28,15.98-17.01,25.96-23.16,7.19-4.43,12.98-9.98,18.29-16.52,3.41-4.21,5.3-8.18,4.88-13.47-.23-2.98,.02-5.99-.16-8.97-.51-8.54,2.79-15.48,8.56-21.52,6.22-6.51,11.64-13.58,15.39-21.86,6.06-13.38,13.42-25.91,24.19-36.15,1.56-.32,3.05-.78,3.91-2.29,.7-.69,1.37-1.43,2.23-1.93,.59,0,1.18-.08,1.75-.23,.69-.64,1.44-1.21,2.16-1.81,11.24-4.83,24.29-6.01,33.78-14.22,20.53-17.77,43.72-32.5,60.43-54.68,10.26-13.62,24.1-22.23,41.4-25.76,14.92-3.05,29.68-7.01,44.74-9.47,13.96-2.28,25.25-9.91,36.3-17.95,9.48-6.89,19.39-12.78,30.69-16.21,7.63-2.32,15.02-5.31,22.39-8.41,9.19-3.86,18.73-5.11,29.03-3.88,18.33,2.18,37.05,1.64,53.62-7.23,12.98-6.95,25.41-5.22,38.49-2.87,4.9,.88,9.58,2.89,14.66,2.76,.13,.58,.23,1.16,.31,1.75Z"/>
    <path class="cls-16" d="M759,255.71c-.74,.64-1.49,1.29-2.23,1.93,.74-.64,1.49-1.29,2.23-1.93Z"/>
    <path class="cls-16" d="M762.92,253.66c-.72,.6-1.44,1.21-2.16,1.81,.72-.6,1.44-1.21,2.16-1.81Z"/>
    <path class="cls-27" d="M460.72,685.37c-4.64,0-9.29,.02-13.93,.03,4.64-2.9,9.28-2.87,13.93-.03Z"/>
    <path class="cls-13" d="M348.95,1045.65c-.09,1.67-.77,3-2.24,3.87,.03-1.71,.49-3.16,2.24-3.87Z"/>
    <path class="cls-13" d="M344.5,1053.62c.08,1.21-.43,2.09-1.51,2.62,.02-1.15,.53-2.03,1.51-2.62Z"/>
    <path class="cls-13" d="M346.69,1049.57c0,1.27-.5,2.25-1.65,2.85,.02-1.26,.57-2.21,1.65-2.85Z"/>
    <path class="cls-13" d="M342.43,1057.62c.1,1.19-.41,2.02-1.47,2.53,.49-.84,.98-1.69,1.47-2.53Z"/>
    <path class="cls-13" d="M1742.6,1115.97c-1.6-1-2.02-2.56-2.04-4.31,1.93,.85,2.19,2.48,2.04,4.31Z"/>
    <path class="cls-13" d="M1834.74,1363.6c-1.59-.79-2.22-2.2-2.49-3.85,2.02,.51,2.46,2.05,2.49,3.85Z"/>
    <path class="cls-13" d="M1836.46,1366.03c-1.18-.39-1.69-1.24-1.72-2.44,1.05,.48,1.65,1.27,1.72,2.44Z"/>
    <path class="cls-27" d="M1114.01,1039.83c-39.19-.26-77.68-6.75-115.18-17.02-44.33-12.14-80.18-38.23-107.7-75.22-17.56-23.59-22.9-50.53-20.7-79.37,.42-5.55,3.04-10.33,8.24-11.37,16.5-3.29,32.78-9.04,50.1-5.85,5.97,1.1,11.48,3.33,17.04,5.53,32.8,12.94,65.65,25.74,100.1,33.82,17.24,4.04,34.81,5.85,52.4,6.79,25.94,1.38,51.91,1.95,77.9,.99,13.17-.49,25.44-4.86,38.11-7.49,18.23-3.79,36.42-7.78,54.6-11.82,5.65-1.25,11.26-1.2,16.86-.23,9.93,1.72,15.04,7.62,15.55,17.72,.77,15.28-2.04,29.92-9.19,43.44-9.99,18.9-21.52,36.28-39.2,49.63-17.32,13.08-34.33,26.17-54.12,35.44-27,12.65-55.63,14.96-84.8,15.01Z"/>
    <path class="cls-27" d="M993.87,678.89c-12.54-2.25-26.6,1.67-40.45-.98-25.32-4.85-48.23-14.97-67.24-32.7-14.75-13.76-16.08-31.46-12.75-49.9,3.58-19.87,11.55-27.13,31.75-29.85,41.4-5.59,82.29-2.84,122.53,8.29,16.25,4.49,30.77,12.47,42.97,24.33,8.95,8.69,14.51,18.91,14.49,31.74,0,2.63,.49,5.3,1.08,7.88,2.49,11.02-1.65,19.5-9.89,26.48-5.99,5.07-13.01,7.95-20.61,9.5-19.97,4.06-40.19,5.28-61.88,5.23Z"/>
    <path class="cls-27" d="M1221.09,674.03c-1.63-18.16,4.42-33.35,17.5-45.89,3.46-3.32,7.23-6.06,12.11-6.3,15.31-.76,30.49-1.03,45.12,5.26,18.67,8.02,36.92,16.77,54.21,27.48,15.76,9.77,28.71,22.61,40.33,36.89,4.02,4.93,7.09,10.41,9,16.55,4.86,15.61-.14,31.17-13.33,40.69-2.41,1.74-4.95,3.57-7.72,4.53-22.61,7.86-45.16,15.98-69.76,14.46-7.48-.46-14.49-2-20.93-5.74-9.77-5.68-19.81-11.01-29.09-17.42-19.28-13.32-33.24-30.5-36.79-54.62-.78-5.32-.54-10.62-.66-15.89Z"/>
    <path class="cls-24" d="M1179.53,847.74c-21.16,2.34-40.7-4.35-59.3-15.02-9.52-5.46-19.4-10.29-28.86-15.85-7.09-4.17-14.69-3.95-22.3-3.63-10.81,.46-21.2-.98-31.3-4.91-16-6.22-22.01-16.63-19.27-33.67,2.72-16.88,14.74-29.28,30.43-31.42,2.32-.32,4.61-.54,6.93,.05,2.56,.65,3.96,2.35,4.46,4.8,.53,2.55-.35,4.81-2.65,5.92-2.97,1.43-6.16,2.43-9.27,3.56-10.5,3.82-16.08,11.4-17.04,22.42-.6,6.91,1.96,11.43,8.33,14.41,7.62,3.57,15.64,5.83,24.15,5.08,16.6-1.47,31.52,2.65,45.32,12.04,8.51,5.79,17.61,10.76,27.11,14.84,19.74,8.47,40.25,11.16,61.49,7.64,6.62-1.1,12.98-3.13,18.06-7.81,2.63-2.42,5.96-2.79,9.11-3.78,3.8-1.19,7.79-1.94,11.4-3.55,13.07-5.83,15.47-15.62,6.96-27.31-4.22-5.79-9.9-9.8-16-13.31-2.3-1.32-4.76-2.44-6.89-4-2.24-1.64-3.61-3.77-2.35-6.87,1.33-3.28,3.68-4.63,7.02-4.26,1.63,.18,3.33,.54,4.79,1.25,12.24,5.96,22.66,13.96,28.85,26.51,6.56,13.31,3.46,26.33-8.37,35.4-3.51,2.69-44.79,20.59-49.21,21.23-6.95,1.01-13.94,.94-21.6,.24Z"/>
    <path class="cls-20" d="M723.02,609.69c.16-.94,.67-1.46,1.68-1.37-.17,.93-.77,1.35-1.68,1.37Z"/>
    <path class="cls-17" d="M1288.17,903.14c-.69,13.14-4.14,25.33-11.18,36.5-1.11,1.77-2.3,3.75-4.44,3.5-6.13-.71-9.79,3.58-14.11,6.5-13.79,9.32-29.46,13.88-45.36,17.56-31.08,7.19-62.5,12.52-94.13,16.8-20.6,2.79-41.25,2.39-61.81,1.25-18.55-1.03-35.66-8-51.41-17.75-23.78-14.73-47.48-29.56-72.67-41.87-12.62-6.17-25.27-12.05-39.38-13.62-4.43-.49-6.45-2.49-7.41-6.58-1.77-7.45-3.08-14.95-3.28-22.62-.12-4.79,2.26-6.54,6.94-5.91,4.33,.58,8.43,1.62,12.4,3.54,24.3,11.74,48.42,23.78,71.8,37.29,27.01,15.61,56.21,23.87,87.52,24.01,19.97,.09,39.85,2.79,59.85,2.05,38.94-1.42,77.63-4.64,115.12-16.33,15.35-4.78,29.71-11.71,43.16-20.51,2.46-1.61,4.54-4.05,8.38-3.8Z"/>
    <path class="cls-23" d="M1248.86,973.75c-24.51,24.09-53.03,41.44-86.75,48.75-24.24,5.26-49.13,4.82-73.68,2.54-29.49-2.73-58.93-7.07-87.35-15.54-41.17-12.26-74.42-36.43-99.96-71.01-2.64-3.57-5.62-7.17-6.35-12.76,8.55,1.69,16.02,3.86,23.23,7.36,25.5,12.37,49.89,26.69,74.09,41.39,7.39,4.49,14.89,8.85,22.53,12.89,11.02,5.83,22.94,8.67,35.29,10.08,33.06,3.76,65.89,1.77,98.41-4.52,22.86-4.42,46.05-7.15,68.59-13.14,9.31-2.47,18.46-5.51,27.69-8.29,2.41-1.13,4.44-1.54,4.25,2.25Z"/>
    <path class="cls-23" d="M1274.11,892.76c-1.18,3.56-4.68,4.53-7.31,6.3-18.33,12.29-39.19,17.97-60.43,22.29-30.08,6.11-60.62,9.21-91.21,9.06-26.22-.13-52.58-.25-78.68-4.11-20.75-3.07-39.74-11.28-57.78-21.18-23.62-12.97-47.12-26.1-71.83-36.91-.86-.38-1.59-1.04-3.24-2.15,11.19-3.51,21.23-3.69,31.49,.57,25.18,10.46,50.79,19.81,76.7,28.29,40.28,13.19,81.87,17.18,124.01,16.92,5.66-.04,11.35-.32,16.97,.13,26.75,2.12,52.06-5.56,77.68-11.13,12.66-2.75,25.31-5.58,37.97-8.37,1.84-.41,3.7-1.27,5.66,.3Z"/>
    <path class="cls-12" d="M1248.86,973.75c-.79-1.94-2.64-1.87-4.25-2.25,2.7-2.47,5.91-3.54,10.17-4.11-.99,3.86-3.38,5.18-5.92,6.36Z"/>
    <path class="cls-18" d="M1001.35,582.42c11.38,.93,16.78,5.67,17.77,15.98,.76,7.95,.86,15.92-.04,23.89-.74,6.59-3.24,12.42-8.33,16.51-16.61,13.32-35.39,19.94-56.67,15.1-21.41-4.87-33.72-25.1-28.8-46.41,2.43-10.53,6.59-20.31,16.07-26.7,3.25-2.19,6.56-4.45,11.33-3.71,.89,4.34-1.45,7.87-3.28,11.1-7.94,14.03,.32,33.08,22.52,32.87,17.64-.17,30.23-12.47,28.55-28.84-.33-3.24-.6-6.65,.89-9.79Z"/>
    <path class="cls-29" d="M1033.07,590.9c12.07,4.02,21.15,10.22,29.18,18.46,9.78,10.05,10.09,22.73,10.42,35.27,.16,6.31-5.09,9.81-10.28,12.36-6.95,3.41-14.51,4.53-22.14,5.34-14.44,1.53-28.84,3.78-43.57,2.72,.01-3.68,3.07-3.33,4.88-4.21,6.61-3.21,12.92-6.84,18.27-11.94,8.29-7.91,13.11-17.46,13.23-29.08,.09-9.28,.02-18.56,.02-28.92Z"/>
    <path class="cls-29" d="M920.67,651.71c-6.39-2.81-12.61-5.95-18.2-10.16-17.96-13.54-20.15-32.64-12.88-51.7,1.88-4.94,5.76-8.33,10.91-9.38,7.07-1.44,14.14-3.51,21.59-2.47,.12,3.78-2.45,6.25-3.82,9.18-4.24,9.1-7.07,18.46-7.89,28.57-1.12,13.89,5.35,24.89,12.35,35.83-.64,.76-1.33,.8-2.06,.12Z"/>
    <path class="cls-14" d="M920.67,651.71c.69-.04,1.37-.08,2.06-.12,.93-.01,1.91,.7,1.29,1.29-1.47,1.39-2.55,.2-3.35-1.17Z"/>
    <path class="cls-3" d="M1290.2,640.21c-2.83,3.7-6.45,4.83-9.47,6.81-17.12,11.23-25.78,30.52-22.49,49.75,.93,5.46,3.01,10.31,6.82,14.14,15.47,15.51,33.82,24.72,56.19,23.34,19.93-1.23,33.43-11.55,40.12-30.57,1.89-5.37,3.13-10.83,3.53-16.53,9.27,4.37,19.9,17.33,21.8,26.47,2.68,12.93-2.9,22.8-16.37,28.18-10.82,4.32-22.25,6.69-33.49,9.63-20.74,5.43-39.69,2.68-57.75-10.09-11.42-8.07-23.32-15.07-32.22-26.27-5.34-6.72-8.9-13.82-10.41-22.24-2.13-11.91-2.86-23.78-.13-35.65,3.03-13.17,13.87-21.85,27.16-21.96,10.96-.1,17.65,1.12,26.7,4.99Z"/>
    <path class="cls-10" d="M1338.37,665.04c7.84,2.33,11.54,6.65,12.17,13.05,.99,10.12-.49,19.94-5.86,28.83-5.58,9.25-13.69,14.37-24.67,14.18-16.67-.3-31.13-5.81-42.95-18-5.97-6.16-7.47-13.03-5.35-21.06,4.09-15.46,14.36-24.69,30.96-30.43-3.84,5.52-6.82,9.34-9.3,13.46-4.85,8.08-3.88,14.07,3,20.45,6.81,6.33,15.14,9.72,24.06,11.35,8.71,1.59,16.61-5.65,17.84-16.17,.56-4.82,.1-9.75,.1-15.66Z"/>
  </g>
  <g>
    <path class="cls-19" d="M237.62,1820.01c-.11-12.91-.23-25.82-.34-38.72,6.33-.53,9.5-.79,15.83-1.31l-1.52-164.48c-15.88,68.98-32.33,137.82-49.56,206.47-9.45,.53-14.17,.8-23.62,1.34-17.16-59.99-34.83-119.82-53.19-179.45,.16,49.15,.32,98.3,.49,147.44,6.55-.63,9.83-.94,16.39-1.56,.05,11.9,.1,23.8,.16,35.69-19.41,1.17-38.82,2.37-58.23,3.62,0-11.22,0-22.45,0-33.67,6.31-.63,9.47-.95,15.78-1.57-.08-56.14-.16-112.28-.24-168.42-6.23,1.72-9.34,2.59-15.56,4.33,0-11.32,0-22.65,0-33.97,30.13-9.54,60.38-18.67,90.75-27.41,11.2,45.06,22.18,90.18,32.97,135.34,12.61-51.38,24.83-102.85,36.74-154.39,25.86-6.69,51.78-13.1,77.77-19.24,.15,13.86,.3,27.72,.45,41.57-6.31,1.3-9.47,1.96-15.78,3.3,.71,66.87,1.42,133.74,2.13,200.62,6.34-.48,9.51-.72,15.86-1.19,.15,13.74,.3,27.47,.45,41.21-29.24,1.41-58.47,2.89-87.71,4.45Z"/>
    <path class="cls-19" d="M470.1,1809.35c-11.76,.86-22.64-5.18-26.3-16.71-7.34,14.64-24.4,22.6-39.92,23.23-28.15,1.13-43-18.9-43.4-45.61-.47-41.76-.95-83.51-1.42-125.27-.14-26.7,11.05-56.7,40.92-61.02,13.84-2,31.4,1.87,37.37,16.34-.09-7.39-.13-11.08-.22-18.47,19.86-3.11,39.76-6.05,59.67-8.85,.9,78.42,1.8,156.85,2.7,235.27-9.8,.35-19.6,.71-29.4,1.09Zm-33.82-172.31c-.09-7.46-2.82-10.64-8.22-9.9-5.39,.73-8.04,4.61-7.96,12.01,.44,37.77,.88,75.54,1.33,113.3,.1,8.18,2.84,12.28,8.54,11.91,5.1-.33,7.74-4.82,7.65-13.07-.45-38.09-.89-76.17-1.34-114.26Z"/>
    <path class="cls-19" d="M677.05,1748.63c.66,42.48-30.04,59.28-68.85,60.34-39.45,1.08-69.54-14.45-69.71-57.16l-1.43-128.26c-.71-43.17,28.17-63.88,68.53-68.48,39.25-4.48,69.49,9.69,69.58,52.71l.48,52.56c-20.27,1.31-40.54,2.71-60.8,4.2-.17-16.35-.33-32.71-.5-49.06-.09-8.88-2.85-13.28-8.27-12.75-5.12,.5-7.78,5.39-7.69,14.23l1.36,131.24c.09,8.83,2.84,13.34,7.95,13.12,5.41-.23,8.07-5,7.98-13.88-.17-17.06-.35-34.11-.52-51.17,20.45-1.29,40.91-2.51,61.38-3.64l.51,56.02Z"/>
    <path class="cls-19" d="M834.43,1799.97c-1.75-9.33-3.51-18.65-5.27-27.98-7.48,20.89-27.06,32.91-48.81,33.23-38.47,.56-64.73-23.38-64.84-62.37-.61-73.41-1.22-146.83-1.82-220.24-.53-39.2,21.59-65.09,60.93-68.51,22.32-1.94,46.16,6.81,54.44,29.27-.05-9.65-.11-19.3-.16-28.95,10.81-.7,21.63-1.37,32.45-2,.18,37.43,.36,74.87,.54,112.3-10.69,.44-21.37,.93-32.06,1.47-.1-17.07-.19-34.15-.29-51.22-.63-13.69-17.38-15.04-27.65-14.72-12.54,.4-25.32,7.23-25.29,21.24,.48,70.17,.97,140.34,1.45,210.5-.92,11.1,6.48,19.28,17.59,18.52,11.79-.8,19.23-5.35,19.18-14.68-.1-17.33-.21-34.65-.31-51.98-6.63,.23-9.95,.34-16.58,.59-.08-11.81-.15-23.63-.23-35.44,25.55-1.07,51.1-2,76.65-2.77,.05,11.95,.11,23.9,.16,35.85-4.58,.11-6.88,.17-11.46,.3,.19,39.08,.37,78.15,.56,117.23-9.72,.11-19.44,.24-29.17,.37Z"/>
    <path class="cls-19" d="M908.7,1799.14c-.25-69.86-.5-139.72-.75-209.57-6.41,.18-9.62,.28-16.03,.49-.07-17.36-.14-34.72-.21-52.08,25.44-.92,50.87-1.62,76.32-2.12,.01,7.05,.02,10.57,.03,17.62,6.93-13.49,21.99-22.89,37.22-22.64,28.07,.47,39.65,23.94,39.08,49.64,0,22.78,0,45.55-.01,68.33-19.53-.02-39.06,.06-58.59,.24-.02-12.96-.04-25.92-.06-38.88-.01-9.49-2.74-14.44-8.19-14.37-5.14,.07-7.85,5.08-7.84,14.56,.12,62.79,.24,125.59,.36,188.38-20.45,.1-40.9,.24-61.35,.41Z"/>
    <path class="cls-19" d="M1211.51,1743.17c.06,41.52-27.72,60.56-67.04,60.28-41.12-.29-72.11-17.35-71.81-61.84,.05-48.85,.09-97.71,.14-146.56-.2-44.04,27.42-64.13,69.74-62.98,41.24,1.12,70.09,21.25,69.66,64.73-.12,26.41-.25,52.82-.37,79.22-25.84-.68-51.69-1.22-77.54-1.64-.06,21.2-.11,42.4-.17,63.59-.02,9.47,3.58,14.47,10.5,14.54,7.53,.08,11.16-4.83,11.19-14.28,.05-14.86,.1-29.72,.14-44.58,18.6,.33,37.19,.72,55.78,1.16-.08,16.11-.15,32.23-.23,48.34Zm-60.99-145.55c.03-9.46-2.68-14.49-8.12-14.61-5.14-.12-7.88,4.79-7.9,14.26-.04,15.18-.08,30.37-.12,45.55,6.4,.11,9.6,.17,16.01,.3,.05-15.17,.09-30.33,.14-45.5Z"/>
    <path class="cls-19" d="M1388.16,1748.16c-.1,41.03-29.06,58.15-67.23,57.46-40.63-.74-72-17.39-71.5-61.67,.27-48.08,.55-96.16,.82-144.24,0-43.88,28.31-61.82,69.91-58.76,40.15,2.96,69.84,22.89,69.24,65.84-.23,25.51-.45,51.01-.68,76.52-25.8-1.4-51.6-2.66-77.42-3.79-.15,20.69-.3,41.38-.44,62.08-.07,9.25,3.51,14.19,10.43,14.38,7.52,.21,11.17-4.5,11.24-13.7,.11-14.46,.22-28.92,.33-43.39,18.57,.8,37.14,1.66,55.7,2.58-.14,15.56-.27,31.13-.41,46.69Zm-60.31-142.97c.07-9.21-2.61-14.22-8.05-14.56-5.13-.32-7.88,4.36-7.95,13.6-.11,14.82-.21,29.64-.32,44.47,6.39,.31,9.59,.48,15.98,.81,.11-14.77,.22-29.54,.33-44.32Z"/>
    <path class="cls-19" d="M1534.83,1806.78c-12.34-.01-22.7-7.53-25.91-19.55-7.76,15.02-25.8,22.11-41.68,21.69-26.66-.7-41.45-22.86-41.3-48.12,.47-49.75,.95-99.51,1.42-149.26,.34-25.17,10.62-60.37,42.47-56.68,15.48,1.8,30.6,12.54,35.57,27.96l.56-52.09c-5.66-.75-8.49-1.12-14.15-1.85,.17-16.2,.34-32.39,.51-48.59,25.21,3.72,50.37,7.7,75.51,11.94-1.2,105.18-2.4,210.37-3.59,315.55-9.8-.35-19.61-.68-29.41-1Zm-29.84-185.21c.09-7.92-2.58-11.95-8-12.5-5.42-.55-8.16,2.96-8.25,10.92-.43,40.66-.86,81.32-1.28,121.98-.09,8.8,2.56,13.54,8.27,13.82,5.11,.25,7.86-4.2,7.95-12.95,.43-40.42,.87-80.84,1.3-121.27Z"/>
    <path class="cls-19" d="M1685.87,1797.61c-12.99-.67-25.98-1.32-38.97-1.95-14.19-57.5-28.11-115.07-41.8-172.69-4.8-.6-7.2-.9-12-1.49,.18-15.54,.36-31.08,.54-46.61,23.9,3.47,47.77,7.14,71.61,10.99,9.57,57.79,19.28,115.56,29.16,173.3,7.77-40.21,15.62-80.41,23.54-120.6-6.57-.99-9.86-1.48-16.44-2.45l.51-44.07c22.5,3.93,44.97,8.02,67.41,12.28-.15,14.08-.3,28.17-.45,42.25-5.84-.95-8.77-1.42-14.61-2.35-12.91,63.8-25.59,127.64-38.06,191.52-4.71,27.69-22.53,50.78-52.18,51.08-33.94,.33-44.62-31.2-43.7-60.29,12.4,.38,24.79,.77,37.19,1.18-.12,10.5,2.52,15.62,10.31,15.81,6.3,.16,9.05-4.4,11.27-14.71,2.21-10.4,4.43-20.79,6.66-31.19Z"/>
    <path class="cls-19" d="M1796.48,1613.52c.05-4.86,.07-7.29,.12-12.15,4.52,.92,6.78,1.39,11.3,2.33,8.02,1.67,12.22-2.02,12.31-10.8-5.58-1.24-8.37-1.85-13.96-3.06-14.04-2.03-20.29-15.38-20.26-28.17,.02-11.32,4.86-23.51,18.35-19.65,6.76,1.7,10.14,2.56,16.9,4.29,14.39,4.09,17.64,20.42,17.51,33.38-.18,18.35-6.81,41.55-30.08,36.24-4.88-.97-7.31-1.45-12.19-2.41Z"/>
    <path class="cls-19" d="M1993.22,1791.18c.42,36.68-39.31,38.51-67.22,36.94-34.26-1.93-67.52-11.11-66.89-51,.06-7.77,.09-11.65,.16-19.41,17.19,1.84,34.38,3.73,51.56,5.66-.04,6.65-.06,9.97-.1,16.62-.04,6.85,4.71,10.85,13.96,11.68,9.24,.83,13.73-2.25,13.76-8.92,.02-5.46,.03-8.2,.06-13.66-.48-12.9-16.31-16.48-26.41-18.94-26.98-6.57-51.14-17.69-50.88-48.75,.09-11.79,.19-23.58,.28-35.38-.14-40.92,36.77-37.77,66.93-31.01,30.95,6.94,63.61,20.92,63.34,57.55,0,6.62,0,9.94,0,16.56-16.65-3.22-33.32-6.34-50-9.39,.02-6.21,.04-9.31,.06-15.52,.03-6.65-4.39-11.07-13.57-12.94-9.17-1.87-13.64,.82-13.68,7.64-.03,5.33-.04,7.99-.07,13.32,1,23.94,49.2,23.42,64.22,35.15,9.68,7.81,14.71,19.57,14.5,31.93,0,10.62,0,21.24,0,31.87Z"/>
  </g>
</svg>